<svg width="13" height="14" viewBox="0 0 13 14" fill="none" xmlns="http://www.w3.org/2000/svg">
<path d="M6.46302 8.17794L3.61102 5.32594C3.55926 5.26746 3.49477 5.22162 3.42252 5.19194C3.35028 5.16227 3.27219 5.14955 3.19426 5.15477C3.11633 5.15998 3.04063 5.18299 2.97298 5.22202C2.90533 5.26106 2.84753 5.31508 2.80402 5.37995C2.72573 5.48799 2.6882 5.62026 2.69809 5.75332C2.70797 5.88638 2.76463 6.01165 2.85802 6.10694L6.08702 9.30695C6.13489 9.35911 6.19307 9.40075 6.25789 9.42924C6.3227 9.45773 6.39272 9.47245 6.46352 9.47245C6.53432 9.47245 6.60434 9.45773 6.66916 9.42924C6.73397 9.40075 6.79215 9.35911 6.84002 9.30695L10.069 6.10694C10.1624 6.01165 10.2191 5.88638 10.229 5.75332C10.2388 5.62026 10.2013 5.48799 10.123 5.37995C10.0795 5.31508 10.0217 5.26106 9.95406 5.22202C9.88641 5.18299 9.81071 5.15998 9.73278 5.15477C9.65485 5.14955 9.57676 5.16227 9.50452 5.19194C9.43227 5.22162 9.36779 5.26746 9.31602 5.32594L6.46302 8.17794Z" fill="#777777"/>
</svg>
