<svg width="13" height="21" viewBox="0 0 13 21" fill="none" xmlns="http://www.w3.org/2000/svg">
<path d="M2.9053 0.149994H3.4303H3.9993H4.5803C5.09097 0.149994 5.60163 0.149994 6.1123 0.149994H7.0523C7.6523 0.149994 8.2523 0.149994 8.8523 0.149994H9.4213H9.9463H10.4093C10.7743 0.188994 10.7743 0.188994 11.0853 0.499994C11.1853 0.887994 11.2613 1.26899 11.3313 1.66199L11.3983 2.01799C11.4696 2.40133 11.54 2.78499 11.6093 3.16899L11.7553 3.95699C11.8746 4.60299 11.9926 5.24899 12.1093 5.89499C12.1673 6.21433 12.2256 6.53366 12.2843 6.85299C12.3743 7.34633 12.4633 7.83999 12.5513 8.33399L12.6283 8.75899C12.9283 10.5 12.9283 10.5 12.6353 11.041C12.1666 11.2562 11.6447 11.3279 11.1353 11.247L10.8053 11.241C10.5363 11.236 10.2683 11.227 10.0003 11.218C9.93891 12.1622 10.2142 13.0976 10.7773 13.858C11.1668 14.8642 11.1633 15.9803 10.7673 16.984L10.6213 17.275H9.8443L9.9223 16.838C9.99807 16.5237 10.0244 16.1994 10.0003 15.877L9.7053 15.966L9.3853 16.034C9.2303 15.879 9.2303 15.879 9.2123 15.604C9.2123 15.488 9.2123 15.371 9.2123 15.252C9.2123 15.133 9.2123 15.001 9.2123 14.871C9.2123 14.671 9.2123 14.671 9.2123 14.471V14.071C9.2123 13.7423 9.21497 13.4137 9.2203 13.085L8.8513 12.939C8.60589 12.8465 8.36614 12.7397 8.1333 12.619C7.5873 12.565 7.0403 12.561 6.4923 12.551L6.0383 12.529C5.53799 12.4916 5.03554 12.5636 4.56584 12.7399C4.09614 12.9162 3.67044 13.1926 3.3183 13.55C3.05503 13.8994 2.86896 14.3007 2.77242 14.7273C2.67588 15.154 2.67107 15.5963 2.7583 16.025C3.00033 16.7671 3.46247 17.4179 4.0833 17.891C4.83859 18.1639 5.64945 18.2467 6.4443 18.132H6.9993C7.36262 18.1847 7.73285 18.1637 8.08784 18.07C8.44282 17.9764 8.77527 17.8121 9.0653 17.587C9.27985 17.6015 9.49011 17.654 9.6863 17.742C9.61702 18.1355 9.45752 18.5075 9.2203 18.829L9.1423 19.305C9.14239 19.4543 9.10731 19.6016 9.0399 19.7348C8.97249 19.8681 8.87465 19.9836 8.7543 20.072C8.0933 20.137 7.4293 20.13 6.7653 20.129C6.4353 20.129 6.1063 20.135 5.7763 20.141H5.1483H4.5703C4.42132 20.1444 4.27361 20.113 4.1389 20.0493C4.00418 19.9856 3.88619 19.8913 3.7943 19.774C3.72406 19.6717 3.67572 19.556 3.65231 19.4342C3.62891 19.3124 3.63095 19.187 3.6583 19.066C3.6723 18.617 3.6723 18.617 3.2023 18.289L2.9453 18.089C2.60146 17.7904 2.32022 17.4265 2.11785 17.0185C1.91549 16.6105 1.796 16.1665 1.7663 15.712C1.73591 15.183 1.81224 14.6533 1.99073 14.1544C2.16922 13.6555 2.44624 13.1976 2.8053 12.808C3.14401 12.4773 3.53664 12.2067 3.9663 12.008C4.2853 11.864 4.2853 11.864 4.3483 11.518L4.4083 11.218L4.0593 11.225C3.5383 11.235 3.0173 11.241 2.4963 11.247L1.9473 11.259H1.4213L0.935302 11.266C0.676159 11.2723 0.424867 11.1768 0.235303 11C-0.305697 10.236 0.235302 8.70699 0.383302 7.82399C0.645302 6.30799 0.645303 6.30799 0.833302 5.93199H1.4543C1.47965 6.77637 1.4014 7.62066 1.2213 8.44599C1.07273 9.09909 0.994615 9.76624 0.988303 10.436H11.8663C11.7473 9.19899 11.7473 9.19899 11.5663 7.97899L11.4813 7.49899L11.3913 6.99899L11.2983 6.47299C11.201 5.92366 11.103 5.37466 11.0043 4.82599L10.8043 3.70199C10.641 2.79133 10.4773 1.87933 10.3133 0.965994H2.5473L1.7703 5.15999L1.1493 5.31499C1.00195 4.74993 0.997827 4.15705 1.1373 3.58999L1.2373 3.04999L1.3493 2.48999L1.4553 1.92499C1.8053 0.151994 1.8053 0.151994 2.9053 0.149994ZM5.3383 11.218L5.1833 11.684H7.6683L7.5133 11.218H5.3383ZM8.4443 11.218L8.5993 11.995L9.2203 12.15V11.218H8.4443ZM4.4063 18.984L4.5613 19.45H8.2893L8.4443 18.984H4.4063Z" fill="#777777"/>
</svg>
