<svg width="21" height="15" viewBox="0 0 21 15" fill="none" xmlns="http://www.w3.org/2000/svg">
<path d="M7.12089 0.513995H9.50089C9.88556 0.513995 10.2706 0.513995 10.6559 0.513995H13.0069C13.4863 0.498061 13.9639 0.57963 14.4108 0.753758C14.8577 0.927885 15.2647 1.19094 15.6069 1.52699C16.0766 2.09192 16.4524 2.72872 16.7199 3.41299C16.7669 3.52099 16.7669 3.52099 16.8199 3.57199L16.9289 3.42799C17.1721 3.14164 17.5072 2.94864 17.8769 2.88199C18.0859 2.86799 18.2939 2.86699 18.5029 2.86799H18.6719H18.9829C19.0752 2.87949 19.1644 2.9093 19.2451 2.95566C19.3258 3.00202 19.3964 3.064 19.4529 3.13799C19.543 3.34593 19.5774 3.57372 19.5529 3.79899C19.5529 3.84299 19.5529 3.88699 19.5529 3.93199C19.5639 4.07941 19.5454 4.22753 19.4983 4.36766C19.4512 4.5078 19.3766 4.63711 19.2789 4.74799C19.065 4.937 18.7872 5.03747 18.5019 5.029L18.3269 5.03899L18.1939 5.04599L18.3219 5.134C19.139 5.65539 19.7249 6.47039 19.9589 7.411C20.0039 7.73627 20.0203 8.06486 20.0079 8.39299C20.0079 8.47099 20.0079 8.54933 20.0079 8.62799C20.0079 8.79133 20.0079 8.95433 20.0079 9.11699C20.0079 9.32433 20.0079 9.53166 20.0079 9.73899C20.0079 9.90033 20.0079 10.0617 20.0079 10.223C20.0079 10.2997 20.0079 10.376 20.0079 10.452C20.0375 11.0363 19.902 11.6171 19.6169 12.128L19.5169 12.214C19.4724 12.2597 19.4394 12.3154 19.4208 12.3765C19.4022 12.4376 19.3984 12.5022 19.4099 12.565C19.4099 12.614 19.4099 12.665 19.4099 12.714C19.4099 12.8167 19.4099 12.919 19.4099 13.021C19.426 13.3411 19.3356 13.6576 19.1529 13.921C19.0597 14.0159 18.9476 14.0903 18.824 14.1393C18.7004 14.1884 18.5678 14.2111 18.4349 14.206H18.2739L17.5459 14.211H17.1629C16.9779 14.211 16.7939 14.211 16.6089 14.211H16.4369C16.1244 14.2398 15.8127 14.1478 15.5659 13.954C15.3621 13.7076 15.2618 13.3918 15.2859 13.073C15.2859 13.018 15.2859 13.018 15.2859 12.962C15.2859 12.8453 15.2859 12.7287 15.2859 12.612C15.2859 12.5327 15.2859 12.4537 15.2859 12.375C15.2859 12.181 15.2859 11.987 15.2859 11.793C15.1702 11.7233 15.0369 11.6886 14.9019 11.693H14.7809H14.5079H14.0419H13.7099L12.9049 11.688H12.2539C11.3952 11.682 10.5366 11.6773 9.6779 11.674H9.22089C8.50089 11.674 7.78057 11.6717 7.0599 11.667H5.15389C4.99935 11.6524 4.84418 11.6874 4.7109 11.767V11.916C4.7109 12.1 4.71789 12.284 4.71989 12.469C4.71989 12.5483 4.71989 12.6277 4.71989 12.707C4.74189 13.589 4.74189 13.589 4.47289 13.928C4.37944 14.0226 4.26738 14.0968 4.14379 14.1458C4.0202 14.1949 3.88778 14.2177 3.75489 14.213H3.59489L2.86689 14.218H2.4839C2.2989 14.218 2.11489 14.218 1.92989 14.218H1.7579C1.44539 14.2468 1.13372 14.1548 0.886896 13.961C0.701386 13.7522 0.601089 13.4813 0.60589 13.202C0.60589 13.152 0.60589 13.102 0.60589 13.051C0.60589 12.9463 0.60589 12.8417 0.60589 12.737C0.621484 12.612 0.607332 12.485 0.564584 12.3665C0.521836 12.248 0.451697 12.1413 0.359887 12.055C0.265525 11.9469 0.197121 11.8186 0.159891 11.68L0.103891 11.529C0.0329229 11.2971 -0.000820321 11.0554 0.00389992 10.813C0.00389992 10.779 0.00389992 10.745 0.00389992 10.713C0.00389992 10.601 0.00389992 10.489 0.00389992 10.377C0.00389992 10.339 0.00389992 10.3 0.00389992 10.26C0.00389992 10.056 0.00389992 9.85199 0.00389992 9.64799C0.00389992 9.44399 0.00389992 9.23499 0.00389992 9.02099C0.00389992 8.85899 0.00389992 8.69666 0.00389992 8.53399C0.00389992 8.45733 0.00389992 8.38033 0.00389992 8.30299C-0.0181701 7.83379 0.0535973 7.36489 0.215005 6.92377C0.376413 6.48264 0.624205 6.07816 0.943887 5.73399C1.18977 5.48318 1.46826 5.26657 1.77189 5.08999L1.62089 5.07599L1.42089 5.055L1.3209 5.04599C1.19263 5.03583 1.06769 5.00007 0.95347 4.94081C0.839252 4.88156 0.738067 4.80001 0.655893 4.70099C0.499168 4.44656 0.432267 4.14693 0.46589 3.84999C0.46589 3.80499 0.46589 3.75999 0.46589 3.71399C0.450818 3.59796 0.460878 3.48004 0.495386 3.36823C0.529894 3.25643 0.58804 3.15335 0.665887 3.06599C0.895887 2.85299 1.17689 2.90599 1.47289 2.90799H1.6439C1.91609 2.89549 2.18783 2.941 2.44109 3.04151C2.69436 3.14203 2.92335 3.29524 3.11289 3.49099L3.19489 3.57399L3.23089 3.50499C3.37089 3.23833 3.51223 2.96999 3.6549 2.69999L3.7109 2.59499C3.91045 2.14941 4.19881 1.74922 4.55834 1.41891C4.91788 1.08861 5.34102 0.835133 5.80189 0.673995C6.23179 0.558617 6.67587 0.504748 7.12089 0.513995ZM4.87289 2.15599C4.61325 2.51874 4.39016 2.9063 4.20689 3.31299L4.06089 3.61299L3.97189 3.79599C3.91089 3.92199 3.84789 4.04299 3.77189 4.16299C3.70489 4.25699 3.7049 4.25699 3.7129 4.35499H16.3129C16.2421 4.14109 16.1545 3.93311 16.0509 3.73299L16.0009 3.63299L15.8959 3.43299L15.7379 3.12299C15.5831 2.79331 15.3909 2.48259 15.1649 2.19699L15.0699 2.07099C14.6827 1.64982 14.1655 1.37061 13.6009 1.27799C13.3709 1.26399 13.1409 1.26399 12.9099 1.26499H10.5419H9.39089H8.3999H7.04989C6.64331 1.23966 6.23627 1.30665 5.85926 1.46096C5.48225 1.61526 5.14504 1.85287 4.87289 2.15599ZM17.4179 3.98599C17.3699 4.07699 17.3239 4.16899 17.2799 4.26199L17.8799 4.26699H18.0859H18.3859H18.5659C18.7119 4.26699 18.7119 4.26699 18.7989 4.16699C18.8094 4.07337 18.8114 3.97898 18.8049 3.88499C18.8049 3.83499 18.8049 3.78499 18.8049 3.73199V3.61499L18.4339 3.60599H18.3339C18.1625 3.59754 17.9913 3.62724 17.8327 3.69296C17.6741 3.75867 17.5321 3.85875 17.4169 3.98599H17.4179ZM1.23289 3.66399C1.23289 3.75399 1.23089 3.84399 1.22689 3.93399V4.08599C1.22689 4.22199 1.2269 4.22199 1.3269 4.30799C1.43347 4.31973 1.54083 4.32274 1.6479 4.31699H1.74789H2.04789H2.24789H2.74789C2.66812 4.12825 2.5402 3.96376 2.3769 3.83999L2.28289 3.77299C2.15669 3.69681 2.00989 3.66185 1.86289 3.67299H1.5169L1.23289 3.66399ZM3.7619 5.08899C4.23515 5.8882 4.81666 6.61811 5.48989 7.25799C5.55489 7.34199 5.55489 7.34199 5.55389 7.43299C5.49602 7.54345 5.41723 7.64161 5.32189 7.72199L5.22189 7.82199L5.14289 7.89599C4.73659 7.55195 4.36757 7.16617 4.04189 6.74499L3.9329 6.60999C3.60609 6.18298 3.30552 5.73649 3.03289 5.27299C2.90255 5.29952 2.77817 5.34968 2.66589 5.42099L2.5659 5.48399L2.45689 5.55199L2.34489 5.621C2.06833 5.78705 1.80787 5.97855 1.56689 6.19299L1.48089 6.27099C1.30286 6.46603 1.15643 6.68771 1.0469 6.92799L0.999887 7.02099C0.778985 7.56596 0.687266 8.15466 0.731897 8.74099C0.731897 8.79399 0.731897 8.84699 0.731897 8.90199C0.731897 9.01333 0.731897 9.12466 0.731897 9.23599C0.731897 9.40466 0.731897 9.57333 0.731897 9.74199C0.731897 9.85066 0.731897 9.95966 0.731897 10.069C0.731897 10.119 0.731897 10.169 0.731897 10.219C0.666121 10.7521 0.793095 11.2912 1.0899 11.739C1.40664 11.9479 1.79039 12.03 2.1649 11.969L2.4239 11.978C2.67674 12.0164 2.93495 11.9981 3.17985 11.9244C3.42475 11.8507 3.65021 11.7235 3.8399 11.552C3.89123 11.5047 3.94157 11.456 3.9909 11.406C4.18539 11.2125 4.4203 11.0644 4.67878 10.9725C4.93726 10.8805 5.21289 10.8469 5.48589 10.874C5.77489 10.874 6.0639 10.881 6.3529 10.889C6.5809 10.895 6.8089 10.898 7.0359 10.901L7.94189 10.915C8.73689 10.93 9.5299 10.929 10.3249 10.924C10.7962 10.924 11.2676 10.924 11.7389 10.924C12.0989 10.924 12.4589 10.922 12.8189 10.918C13.1289 10.918 13.4392 10.918 13.7499 10.918C13.9099 10.918 14.0699 10.918 14.2299 10.918C14.5755 10.8715 14.9272 10.903 15.2591 11.0101C15.5909 11.1172 15.8946 11.2972 16.1479 11.537L16.3139 11.68L16.3869 11.743C16.5634 11.8732 16.7658 11.964 16.9804 12.0094C17.195 12.0547 17.4168 12.0536 17.6309 12.006C17.7589 11.997 17.8859 11.994 18.0139 11.992L18.2599 11.986H18.3749C18.5881 11.9894 18.7946 11.9118 18.9529 11.769L19.0329 11.705C19.1049 11.6049 19.1578 11.4923 19.1889 11.373L19.2349 11.236C19.3134 10.8651 19.345 10.4858 19.3289 10.107C19.3289 10.054 19.3289 10.001 19.3289 9.94699C19.3289 9.83566 19.3289 9.724 19.3289 9.61199C19.3289 9.44333 19.3289 9.27466 19.3289 9.10599C19.4385 8.18718 19.2235 7.25895 18.7209 6.48199L18.6459 6.38199C18.3892 6.0926 18.0848 5.8494 17.7459 5.66299C17.6659 5.61299 17.5869 5.56299 17.5089 5.509C17.3731 5.38411 17.2005 5.30658 17.0169 5.28799C16.9399 5.39799 16.8719 5.506 16.8039 5.621C16.604 5.95269 16.3832 6.27133 16.1429 6.575L16.0429 6.70199C15.7078 7.14445 15.3251 7.54887 14.9019 7.90799C14.8312 7.84133 14.7612 7.77466 14.6919 7.70799L14.5739 7.59799C14.4879 7.49 14.4879 7.49 14.4819 7.39799C14.5624 7.26591 14.6637 7.14772 14.7819 7.04799C15.1372 6.69204 15.4629 6.30778 15.7559 5.89899L15.8169 5.81699C15.9879 5.58399 16.1249 5.34799 16.2759 5.09699L3.7619 5.08899ZM3.7189 12.466C3.56629 12.5779 3.38212 12.6384 3.1929 12.639H3.06989H2.93789H2.8029L2.37389 12.647L2.0839 12.653L1.3719 12.667C1.3679 12.7717 1.36489 12.876 1.36289 12.98C1.36289 13.038 1.36289 13.096 1.36289 13.156C1.36289 13.305 1.36289 13.305 1.43189 13.388C1.52149 13.4534 1.63304 13.4814 1.7429 13.466H2.5189C2.6859 13.466 2.8529 13.466 3.0189 13.466H3.75289C3.8029 13.4617 3.85113 13.4453 3.89344 13.4183C3.93576 13.3914 3.9709 13.3545 3.99589 13.311C4.01276 13.2372 4.01716 13.1612 4.00889 13.086V12.955V12.819C4.00889 12.774 4.00889 12.728 4.00889 12.681C4.00889 12.569 4.00657 12.457 4.0019 12.345C3.89558 12.3491 3.79447 12.3921 3.71789 12.466H3.7189ZM16.0389 12.4C16.0389 12.55 16.0319 12.7 16.0299 12.851V12.98C16.0299 13.021 16.0299 13.062 16.0299 13.104V13.219C16.034 13.2683 16.0501 13.3158 16.077 13.3573C16.1039 13.3989 16.1406 13.4331 16.1839 13.457C16.2587 13.4754 16.3361 13.4815 16.4129 13.475H17.1889C17.3559 13.475 17.5229 13.475 17.6889 13.475H18.4229C18.4732 13.4716 18.5218 13.4557 18.5642 13.4286C18.6067 13.4015 18.6417 13.3642 18.6659 13.32C18.6816 13.2104 18.6846 13.0993 18.6749 12.989V12.812V12.676H18.4969C18.2769 12.68 18.0566 12.683 17.8359 12.685H17.5509C17.4139 12.685 17.2769 12.685 17.1389 12.69H17.0119C16.7568 12.6936 16.5059 12.6242 16.2889 12.49C16.2131 12.4444 16.1292 12.4139 16.0419 12.4H16.0389Z" fill="#777777"/>
<path d="M6.20996 9.06799H13.678V9.76799H6.20996V9.06799Z" fill="#777777"/>
<path d="M17.558 7.99501C17.653 7.99501 17.747 7.99501 17.842 7.99501C18.354 7.99501 18.354 7.99501 18.553 8.14601C18.7656 8.54969 18.8209 9.01793 18.708 9.46001C18.6561 9.6988 18.5246 9.91285 18.335 10.067C18.0548 10.1997 17.7426 10.2496 17.435 10.211H17.263H16.813H16.353L15.453 10.205C15.4583 10.0863 15.4643 9.96801 15.471 9.85001V9.75001C15.4946 9.27897 15.6899 8.83289 16.02 8.49601C16.2299 8.31407 16.4742 8.176 16.7383 8.08996C17.0025 8.00391 17.2812 7.97163 17.558 7.99501ZM16.458 9.10701C16.3436 9.21011 16.2669 9.3484 16.24 9.50001C16.474 9.50534 16.7073 9.50934 16.94 9.51201H17.179C17.293 9.51201 17.408 9.51201 17.522 9.51201H17.63C17.7201 9.51673 17.8104 9.50831 17.898 9.48701C17.9573 9.4163 18.0005 9.33349 18.0245 9.24437C18.0485 9.15524 18.0528 9.06195 18.037 8.97101V8.81701V8.70001C17.879 8.70601 17.725 8.70601 17.573 8.70601H17.444C17.2592 8.68757 17.0727 8.71434 16.9006 8.78403C16.7285 8.85371 16.5759 8.96422 16.456 9.10601L16.458 9.10701Z" fill="#777777"/>
<path d="M2.27298 8.003H2.46498C2.7528 7.97807 3.04265 8.0132 3.31618 8.10615C3.58971 8.19911 3.84095 8.34786 4.05398 8.543C4.37633 8.89971 4.55671 9.36223 4.56098 9.843L4.56598 9.943C4.56998 10.027 4.57398 10.1107 4.57798 10.194C4.24798 10.198 3.91798 10.201 3.58798 10.203H3.12798H2.59898H2.43398C2.27053 10.2198 2.10538 10.2009 1.94997 10.1476C1.79456 10.0942 1.65262 10.0077 1.53398 9.894C1.35071 9.60693 1.26383 9.26886 1.28598 8.929V8.829C1.26924 8.57402 1.35327 8.32265 1.51998 8.129C1.74768 7.99785 2.015 7.95312 2.27298 8.003ZM2.00098 8.715C2.00098 8.805 1.99498 8.895 1.99298 8.985V9.137C1.99183 9.20417 2.00396 9.2709 2.02867 9.33336C2.05338 9.39583 2.09019 9.4528 2.13698 9.501C2.26136 9.51995 2.38727 9.52698 2.51298 9.522H2.62398C2.74098 9.522 2.85798 9.522 2.97498 9.515H3.21298C3.40765 9.515 3.60198 9.51133 3.79598 9.504C3.74355 9.33782 3.65582 9.18495 3.53879 9.05584C3.42177 8.92674 3.27822 8.82445 3.11798 8.756C2.90453 8.71278 2.68626 8.69832 2.46898 8.713H2.33398L2.00098 8.715Z" fill="#777777"/>
</svg>
