<svg width="16" height="18" viewBox="0 0 16 18" fill="none" xmlns="http://www.w3.org/2000/svg">
<path d="M5.9821 0.743011H7.4641H8.1881H8.7491H9.56709C10.078 0.75728 10.5633 0.969978 10.9201 1.33601C11.2748 1.76483 11.473 2.30159 11.4821 2.85801L11.5021 3.03301C11.5194 3.18901 11.5364 3.34534 11.5531 3.50201C11.5698 3.65868 11.5874 3.82201 11.6061 3.99201C11.6281 4.19201 11.6498 4.39201 11.6711 4.59201C11.7144 4.99601 11.7594 5.39968 11.8061 5.80301C11.8248 5.96634 11.8434 6.13001 11.8621 6.29401C11.8768 6.42134 11.8914 6.54868 11.9061 6.67601C12.1121 8.44401 12.1121 8.44401 11.6301 9.06601C11.5571 9.14901 11.4811 9.22901 11.4021 9.30701L11.3481 9.36401C11.1652 9.52422 10.9523 9.64643 10.7217 9.72352C10.4912 9.80061 10.2475 9.83103 10.0051 9.81301H9.8811H9.49111H9.2251H8.5761V10.578H8.8971L9.9501 10.572H10.5881H11.2051H11.4401H11.7701H11.8701C12.1119 10.5641 12.3473 10.6501 12.5271 10.812C12.6361 10.937 12.6361 10.937 12.6361 11.025L12.9361 10.992C12.9361 10.948 12.9361 10.904 12.9361 10.859C12.9361 10.445 12.9381 10.031 12.9421 9.61701C12.9421 9.40435 12.9421 9.19168 12.9421 8.97901C12.9421 8.76635 12.9421 8.56068 12.9421 8.36201C12.9421 8.28401 12.9421 8.20568 12.9421 8.12701C12.9421 8.01701 12.9421 7.90701 12.9421 7.79701C12.9421 7.76501 12.9421 7.73301 12.9421 7.69701C12.9378 7.54904 12.9638 7.40175 13.0185 7.26419C13.0732 7.12662 13.1554 7.00168 13.2601 6.89701C13.467 6.7335 13.7244 6.64722 13.9881 6.65301H14.2201H14.4571C14.7568 6.62215 15.058 6.69638 15.3091 6.86301C15.4277 6.97488 15.5207 7.11111 15.5816 7.26233C15.6425 7.41354 15.67 7.57617 15.6621 7.73901C15.6364 8.13178 15.461 8.49973 15.1721 8.76701C14.955 8.93826 14.698 9.05147 14.4251 9.09601C14.4251 9.12201 14.4251 9.14801 14.4251 9.17501C14.4251 9.42368 14.4271 9.67201 14.4311 9.92001C14.4311 10.048 14.4311 10.1757 14.4311 10.303C14.4311 10.4303 14.4311 10.554 14.4311 10.674C14.4311 10.7207 14.4311 10.7673 14.4311 10.814C14.4462 11.0371 14.4163 11.261 14.3431 11.4723C14.2699 11.6836 14.155 11.878 14.0051 12.044C13.7296 12.3209 13.3585 12.4816 12.9681 12.493H12.8401H12.6401H12.4451H12.3281C12.2228 12.5106 12.1267 12.5639 12.0561 12.644C11.9886 12.6779 11.9192 12.7076 11.8481 12.733L11.7411 12.775C11.5046 12.8344 11.2607 12.8594 11.0171 12.849H10.2361C10.158 12.8578 10.079 12.8507 10.0037 12.8282C9.92846 12.8057 9.85851 12.7682 9.7981 12.718C9.77679 12.6691 9.76579 12.6164 9.76579 12.563C9.76579 12.5097 9.77679 12.4569 9.7981 12.408C9.81533 12.3782 9.83899 12.3526 9.86736 12.333C9.89572 12.3135 9.92809 12.3005 9.9621 12.295H10.3031H10.6031H10.8981H11.0811C11.2373 12.3062 11.3941 12.2864 11.5426 12.2366C11.6911 12.1868 11.8282 12.1081 11.9461 12.005C12.1043 11.8303 12.1875 11.6005 12.1781 11.365C12.1716 11.3206 12.1547 11.2784 12.1288 11.2417C12.1029 11.2051 12.0687 11.175 12.0291 11.154C11.9182 11.1377 11.806 11.132 11.6941 11.137H3.8521C3.7942 11.1281 3.73503 11.1324 3.67906 11.1498C3.6231 11.1671 3.57182 11.1969 3.5291 11.237C3.49639 11.298 3.47747 11.3655 3.47366 11.4346C3.46986 11.5037 3.48127 11.5728 3.5071 11.637C3.54638 11.7659 3.613 11.8847 3.70239 11.9855C3.79179 12.0863 3.90185 12.1666 4.0251 12.221C4.28193 12.2906 4.54897 12.3146 4.8141 12.292H5.99111H7.11209H7.8691H9.0781C9.12455 12.2978 9.16901 12.3144 9.2079 12.3404C9.2468 12.3665 9.27905 12.4013 9.30209 12.442C9.31877 12.5188 9.31877 12.5982 9.30209 12.675C9.24797 12.7576 9.16481 12.8168 9.06909 12.841H8.56909V14.969H9.0761H9.3971H9.90511H10.4701C10.8134 14.9379 11.1594 14.9759 11.4878 15.0806C11.8162 15.1854 12.1202 15.3549 12.3821 15.579C12.7691 15.9934 12.9865 16.538 12.9911 17.105C12.9836 17.3055 12.9003 17.4956 12.7581 17.637C12.6543 17.714 12.5356 17.7685 12.4096 17.797C12.2835 17.8256 12.1529 17.8277 12.0261 17.803C11.8445 17.752 11.6897 17.6327 11.5941 17.47C11.5263 17.3271 11.4821 17.1741 11.4631 17.017C11.4501 16.876 11.391 16.7432 11.2951 16.639C11.0419 16.5007 10.751 16.4471 10.4651 16.486H10.3011H9.87109H9.43109L8.56909 16.481V16.546C8.56909 16.646 8.5751 16.746 8.5771 16.846C8.5771 16.88 8.5771 16.913 8.5771 16.946C8.58661 17.0704 8.57116 17.1954 8.53166 17.3137C8.49217 17.4321 8.42941 17.5413 8.34709 17.635C8.2595 17.7091 8.1575 17.7643 8.04752 17.797C7.93753 17.8297 7.82196 17.8392 7.7081 17.825C7.52864 17.8091 7.36251 17.7237 7.2451 17.587C7.13862 17.4563 7.08541 17.2902 7.0961 17.122C7.0961 17.085 7.0961 17.048 7.0961 17.009C7.0961 16.97 7.0961 16.931 7.0961 16.891C7.0961 16.851 7.0961 16.813 7.0961 16.772C7.0961 16.6753 7.0961 16.5783 7.0961 16.481L6.1321 16.487H5.68511H5.2531H5.08811H4.8571H4.72411C4.5577 16.5089 4.40454 16.5894 4.2921 16.714C4.21968 16.8366 4.17307 16.9727 4.15511 17.114C4.13918 17.2385 4.09653 17.3581 4.03008 17.4646C3.96362 17.5711 3.87494 17.662 3.7701 17.731C3.59453 17.8158 3.39563 17.8394 3.20509 17.798C3.00864 17.7402 2.84187 17.6092 2.73911 17.432C2.61393 17.0495 2.63749 16.6339 2.8051 16.268C2.91891 16.0053 3.08351 15.7677 3.28944 15.5688C3.49538 15.3699 3.73859 15.2136 4.0051 15.109C4.4005 14.985 4.81585 14.9371 5.2291 14.968H6.3291H7.10111V12.82H6.5011H6.12509H5.5251H4.8611C4.0111 12.82 4.0111 12.82 3.6841 12.647L3.58409 12.595C3.52209 12.559 3.46109 12.521 3.40109 12.481C3.33484 12.4719 3.26793 12.4685 3.2011 12.471H3.08009H2.8291C2.5962 12.481 2.36386 12.4409 2.14784 12.3532C1.93183 12.2656 1.73718 12.1325 1.5771 11.963C1.28273 11.5672 1.14587 11.0761 1.1931 10.585C1.1931 10.541 1.1931 10.497 1.1931 10.452C1.1931 10.3367 1.1931 10.2217 1.1931 10.107C1.1931 9.99234 1.1931 9.87434 1.1931 9.75301C1.1931 9.52234 1.1901 9.29201 1.1841 9.06201L1.1031 9.03701L0.996095 9.00201L0.890092 8.96801C0.5604 8.83894 0.292724 8.58843 0.142106 8.26801C0.110106 8.18801 0.0800933 8.10901 0.0540933 8.02701L0.0211038 7.92701C-0.0178962 7.31901 -0.0179006 7.31901 0.154099 7.06201L0.193101 7.00001C0.34611 6.79749 0.570806 6.66117 0.821107 6.61901C0.973097 6.60647 1.12567 6.60279 1.27809 6.60801C1.35809 6.60801 1.4381 6.60801 1.5181 6.60801C1.6889 6.59307 1.86094 6.61438 2.02293 6.67057C2.18493 6.72675 2.33322 6.81652 2.4581 6.93401C2.56427 7.07185 2.64223 7.22925 2.68753 7.39724C2.73283 7.56522 2.74457 7.74049 2.72209 7.91301C2.72209 7.94601 2.72209 7.98001 2.72209 8.01301C2.72209 8.12201 2.72209 8.23201 2.72209 8.34101C2.72209 8.41701 2.72209 8.49334 2.72209 8.57001C2.72209 8.77001 2.72209 8.97001 2.72209 9.17001C2.72209 9.37001 2.72209 9.57434 2.72209 9.78301C2.72209 10.183 2.72209 10.583 2.72209 10.983L2.8671 10.97L2.9491 10.963C3.0261 10.955 3.0261 10.955 3.0911 10.893L3.13809 10.823C3.23921 10.6849 3.38704 10.5883 3.55409 10.551C3.67384 10.5365 3.79456 10.5315 3.9151 10.536H4.0201H4.36209H4.6001H5.22411H5.86209L7.11209 10.542V9.79301H6.94811L6.3411 9.79801H6.08009C5.74412 9.84547 5.40186 9.81982 5.07671 9.72283C4.75155 9.62583 4.45118 9.45978 4.19611 9.23601C4.01507 9.04625 3.87363 8.82234 3.78006 8.57733C3.68649 8.33233 3.64264 8.07114 3.65109 7.80901C3.65109 7.66901 3.6701 7.53001 3.6861 7.39101L3.6971 7.29101C3.70843 7.18634 3.7201 7.08134 3.7321 6.97601L3.7561 6.75601L3.8071 6.29501C3.8291 6.09901 3.85077 5.90268 3.8721 5.70601C3.88877 5.55468 3.90544 5.40334 3.9221 5.25201L3.94611 5.03501C3.95744 4.93368 3.96877 4.83368 3.9801 4.73501L3.9901 4.64501C4.0451 4.15601 4.0451 4.15601 4.1321 4.04501C4.20761 3.99459 4.2998 3.97557 4.3891 3.99201C4.4424 3.99842 4.49327 4.01801 4.5371 4.04901C4.61475 4.2828 4.62171 4.53429 4.5571 4.77201L4.5471 4.85801C4.54044 4.91868 4.53343 4.97968 4.52609 5.04101C4.51476 5.13768 4.50377 5.23468 4.4931 5.33201C4.46977 5.53801 4.44643 5.74434 4.4231 5.95101C4.39576 6.18968 4.36877 6.42834 4.3421 6.66701C4.33144 6.76168 4.32043 6.85634 4.3091 6.95101C4.2781 7.22601 4.2491 7.50101 4.2311 7.77701V7.84501C4.22146 8.03329 4.2557 8.22123 4.3311 8.39401L4.3591 8.46601C4.51935 8.79275 4.79729 9.04675 5.1371 9.17701C5.34834 9.23623 5.56852 9.25689 5.7871 9.23801H9.9501C10.1564 9.25364 10.3636 9.22525 10.5581 9.15474C10.7525 9.08423 10.9298 8.9732 11.0781 8.82901C11.2197 8.67159 11.3261 8.48585 11.3905 8.28414C11.4548 8.08242 11.4754 7.86933 11.4511 7.65901C11.4441 7.46401 11.4201 7.27001 11.3981 7.07701L11.3821 6.92901C11.3674 6.79568 11.3528 6.66234 11.3381 6.52901C11.3234 6.39568 11.3078 6.25668 11.2911 6.11201C11.2651 5.87868 11.2388 5.64534 11.2121 5.41201C11.1814 5.14534 11.1514 4.87668 11.1221 4.60601C11.0968 4.37401 11.0708 4.14068 11.0441 3.90601C11.0288 3.76801 11.0134 3.63001 10.9981 3.49201C10.9828 3.35401 10.9681 3.22434 10.9541 3.10301L10.9381 2.96101C10.9368 2.46109 10.7477 1.97992 10.4081 1.61301C10.0496 1.36455 9.6172 1.24568 9.1821 1.27601H6.83611C6.54764 1.23111 6.253 1.24621 5.97064 1.32037C5.68828 1.39453 5.42427 1.52615 5.1951 1.70701C4.90127 2.06937 4.74632 2.52464 4.7581 2.99101L4.7471 3.09601L4.7381 3.19101C4.73477 3.25163 4.71924 3.31095 4.69243 3.36542C4.66562 3.41989 4.62809 3.46839 4.58209 3.50801C4.53631 3.52845 4.48674 3.53901 4.4366 3.53901C4.38646 3.53901 4.33688 3.52845 4.29109 3.50801C4.25689 3.48905 4.22799 3.46181 4.20703 3.42879C4.18607 3.39578 4.17371 3.35803 4.1711 3.31901C4.15898 3.11584 4.17208 2.91196 4.2101 2.71201L4.2191 2.64201C4.24146 2.17759 4.41732 1.73373 4.7191 1.38001L4.7811 1.31001C4.93403 1.141 5.11887 1.0039 5.32498 0.906596C5.5311 0.809288 5.75442 0.753694 5.9821 0.743011ZM0.5981 7.36801C0.522667 7.57051 0.529484 7.79448 0.617097 7.99201C0.724376 8.22503 0.919092 8.40645 1.1591 8.49701C1.38778 8.55437 1.62356 8.57829 1.8591 8.56801H1.95909H2.1911C2.1911 8.43468 2.1911 8.30134 2.1911 8.16801C2.1911 8.12268 2.1911 8.07734 2.1911 8.03201C2.1911 7.96534 2.1911 7.89868 2.1911 7.83201V7.71001C2.18591 7.53033 2.11179 7.35954 1.9841 7.23301C1.8099 7.15244 1.61582 7.12496 1.4261 7.15401H1.2191H0.965104C0.82146 7.17782 0.691758 7.25407 0.601106 7.36801H0.5981ZM13.5981 7.29901C13.5108 7.43263 13.4723 7.59229 13.4891 7.75101C13.4891 7.77401 13.4891 7.79801 13.4891 7.82201C13.4891 7.89601 13.4891 7.97001 13.4891 8.04401C13.4891 8.09468 13.4891 8.14501 13.4891 8.19501C13.4891 8.31768 13.4891 8.44068 13.4891 8.56401H13.8171H13.9091C14.0765 8.58228 14.2459 8.56558 14.4065 8.51497C14.5671 8.46436 14.7154 8.38095 14.8421 8.27001C14.9345 8.17706 15.0074 8.06651 15.0564 7.9449C15.1053 7.82328 15.1294 7.69309 15.1271 7.56201C15.0936 7.41437 15.0076 7.28394 14.8851 7.19501C14.7142 7.15296 14.5376 7.13844 14.3621 7.15201H14.2231H14.0231H13.9011C13.7872 7.16696 13.6815 7.21897 13.6001 7.30001L13.5981 7.29901ZM1.7591 9.06201C1.7591 9.31668 1.75744 9.57101 1.75411 9.82501C1.75411 9.94301 1.75411 10.0613 1.75411 10.18C1.75411 10.3133 1.75411 10.4497 1.75411 10.589C1.75411 10.631 1.75411 10.673 1.75411 10.716C1.73728 10.8859 1.75626 11.0574 1.80983 11.2195C1.8634 11.3816 1.95036 11.5306 2.06509 11.657C2.26844 11.8405 2.53539 11.9374 2.8091 11.927H2.93511H3.03011L2.9991 11.746L2.9811 11.646C2.9721 11.565 2.9721 11.565 2.9301 11.529L2.74111 11.502C2.58938 11.4912 2.44551 11.4304 2.33209 11.329C2.25391 11.2065 2.21421 11.0633 2.21809 10.918C2.21809 10.877 2.21809 10.835 2.21809 10.793C2.21809 10.751 2.21809 10.704 2.21809 10.659C2.21809 10.614 2.21809 10.567 2.21809 10.521C2.21809 10.4003 2.21809 10.28 2.21809 10.16C2.21809 10.037 2.21809 9.91401 2.21809 9.79101C2.21809 9.54968 2.21577 9.30868 2.21111 9.06801L1.7591 9.06201ZM13.4981 9.06201C13.4981 9.12201 13.4981 9.18301 13.4981 9.24501C13.4981 9.44501 13.4961 9.64501 13.4921 9.84501C13.4921 9.96634 13.4921 10.0877 13.4921 10.209C13.4921 10.3303 13.4921 10.4473 13.4921 10.56C13.4921 10.626 13.4921 10.692 13.4921 10.76C13.4921 10.801 13.4921 10.841 13.4921 10.883C13.4921 10.925 13.4921 10.954 13.4921 10.991C13.4825 11.0756 13.456 11.1574 13.4143 11.2316C13.3725 11.3058 13.3164 11.3709 13.2491 11.423C13.0894 11.4849 12.9203 11.5187 12.7491 11.523L12.6491 11.923C12.9231 11.9661 13.2037 11.9194 13.4491 11.79L13.5551 11.734C13.7324 11.5844 13.8584 11.383 13.9151 11.158C13.9233 11.0867 13.9256 11.0148 13.9221 10.943V10.815C13.9221 10.7697 13.9221 10.7243 13.9221 10.679C13.9221 10.6337 13.9221 10.587 13.9221 10.539C13.9221 10.4163 13.9221 10.294 13.9221 10.172C13.9221 10.05 13.9221 9.92501 13.9221 9.79701C13.9221 9.55168 13.9221 9.30668 13.9221 9.06201H13.4981ZM7.61209 9.79401V10.559H8.0441V9.79301L7.61209 9.79401ZM7.61209 12.82C7.61209 12.851 7.61209 12.883 7.61209 12.92C7.61209 13.216 7.60977 13.512 7.6051 13.808C7.6051 13.96 7.6051 14.1123 7.6051 14.265C7.6051 14.4177 7.6051 14.5647 7.6051 14.706C7.6051 14.762 7.6051 14.818 7.6051 14.874C7.6051 14.952 7.6051 15.031 7.6051 15.109C7.6051 15.132 7.6051 15.156 7.6051 15.18C7.60964 15.2619 7.59275 15.3436 7.55609 15.417C7.4557 15.4616 7.34523 15.4785 7.2361 15.466H6.7191H6.2441H5.4861H5.2231C4.94504 15.4362 4.66384 15.4631 4.39642 15.5449C4.12901 15.6267 3.88092 15.7618 3.6671 15.942C3.58276 16.0482 3.50495 16.1594 3.4341 16.275L3.3811 16.356C3.25591 16.5968 3.20476 16.8692 3.2341 17.139C3.25826 17.1804 3.2927 17.2149 3.33409 17.239C3.37646 17.2508 3.42082 17.2537 3.46437 17.2475C3.50792 17.2413 3.54971 17.2262 3.5871 17.203C3.64319 17.1126 3.67488 17.0093 3.67909 16.903C3.70523 16.7272 3.77011 16.5594 3.86903 16.4117C3.96796 16.264 4.09846 16.1401 4.2511 16.049C4.44096 15.9616 4.64946 15.9224 4.85809 15.935H7.2961C7.39754 15.9303 7.49904 15.9431 7.5961 15.973V16.073C7.5961 16.1897 7.5991 16.3063 7.6051 16.423C7.6051 16.4737 7.6051 16.524 7.6051 16.574C7.6051 16.6467 7.60676 16.7193 7.61009 16.792C7.61009 16.836 7.61009 16.879 7.61009 16.924C7.61477 17.0228 7.64107 17.1194 7.6871 17.207C7.76981 17.2467 7.8632 17.2583 7.9531 17.24C7.98825 17.2105 8.01651 17.1736 8.03586 17.1319C8.05521 17.0903 8.06518 17.0449 8.06509 16.999C8.06509 16.957 8.06509 16.916 8.06509 16.873C8.06509 16.83 8.06509 16.781 8.06509 16.735C8.06509 16.663 8.06509 16.591 8.06509 16.519C8.06509 16.449 8.06509 16.379 8.06509 16.31C8.06509 16.268 8.06509 16.227 8.06509 16.184C8.06666 16.1342 8.08136 16.0857 8.1077 16.0433C8.13404 16.001 8.17109 15.9664 8.2151 15.943C8.3062 15.9303 8.39813 15.9246 8.4901 15.926H10.5381C10.7443 15.897 10.9542 15.9102 11.1551 15.9647C11.356 16.0192 11.5438 16.1139 11.7071 16.243C11.9012 16.4923 12.0218 16.7908 12.0551 17.105C12.0681 17.181 12.0681 17.181 12.1391 17.24C12.182 17.2516 12.2268 17.2541 12.2707 17.2473C12.3146 17.2406 12.3566 17.2249 12.3941 17.201C12.4646 17.0582 12.4803 16.8946 12.4381 16.741C12.3808 16.5126 12.2788 16.2978 12.1381 16.109L12.0941 16.048C11.8339 15.7384 11.4657 15.5393 11.0641 15.491C10.8403 15.4714 10.6157 15.4641 10.3911 15.469H10.1191H9.3461H8.87109H8.36411C8.27549 15.4787 8.18658 15.4536 8.11611 15.399C8.07648 15.2955 8.05975 15.1846 8.06709 15.074V14.993C8.06709 14.913 8.06709 14.833 8.06709 14.752C8.06709 14.696 8.06709 14.6403 8.06709 14.585C8.06709 14.4383 8.06709 14.2917 8.06709 14.145C8.06709 13.9983 8.06709 13.8487 8.06709 13.696C8.06709 13.4027 8.06477 13.1093 8.06011 12.816L7.61209 12.82Z" fill="#777777"/>
</svg>
