<svg width="16" height="14" viewBox="0 0 16 14" fill="none" xmlns="http://www.w3.org/2000/svg">
<path d="M9.27499 14L8.34299 13.464L10.486 9.714H13.7C13.984 9.714 14.2564 9.60116 14.4573 9.40031C14.6581 9.19946 14.771 8.92705 14.771 8.643V2.214C14.771 1.92995 14.6581 1.65754 14.4573 1.45669C14.2564 1.25584 13.984 1.143 13.7 1.143H2.98599C2.84526 1.14287 2.70588 1.17047 2.57583 1.22424C2.44577 1.278 2.32759 1.35687 2.22803 1.45633C2.12847 1.5558 2.04949 1.67391 1.99561 1.80391C1.94172 1.93392 1.91399 2.07327 1.91399 2.214V8.643C1.91399 8.92705 2.02682 9.19946 2.22768 9.40031C2.42853 9.60116 2.70094 9.714 2.98499 9.714H7.80699V10.785H2.98599C2.41763 10.785 1.87255 10.5592 1.47066 10.1573C1.06877 9.75544 0.842987 9.21036 0.842987 8.642V2.214C0.842987 1.64564 1.06877 1.10056 1.47066 0.698669C1.87255 0.296779 2.41763 0.0709991 2.98599 0.0709991H13.7C14.2683 0.0709991 14.8134 0.296779 15.2153 0.698669C15.6172 1.10056 15.843 1.64564 15.843 2.214V8.643C15.843 9.21136 15.6172 9.75644 15.2153 10.1583C14.8134 10.5602 14.2683 10.786 13.7 10.786H11.107L9.27499 14Z" fill="#777777"/>
<path d="M4.05698 3.285H12.628V4.356H4.05698V3.285Z" fill="#777777"/>
<path d="M4.05698 6.5H9.41398V7.571H4.05698V6.5Z" fill="#777777"/>
</svg>
