<svg width="20" height="17" viewBox="0 0 20 17" fill="none" xmlns="http://www.w3.org/2000/svg">
<path d="M14.233 2.35399C14.384 2.45399 14.533 2.55399 14.688 2.64799L14.779 2.70599C15.0317 2.86799 15.285 3.02899 15.539 3.18899C15.913 3.42566 16.286 3.66332 16.658 3.90199L17.118 4.19599L17.667 4.54699L17.847 4.66199L17.937 4.71999C18.1143 4.83332 18.292 4.94599 18.47 5.05799L18.595 5.13699L18.835 5.28799C19.783 5.88799 19.783 5.88799 19.967 6.43699C19.9877 6.57297 19.9971 6.71045 19.995 6.84799V6.93299C19.9676 7.32111 19.8217 7.69146 19.577 7.99399L19.43 8.22299L19.354 8.34199C19.227 8.54199 19.104 8.74199 18.98 8.94199C18.7133 9.37865 18.4427 9.81432 18.168 10.249C17.932 10.627 17.6987 11.0053 17.468 11.384C17.2533 11.732 17.0376 12.0797 16.821 12.427C16.7416 12.5543 16.6626 12.682 16.584 12.81C15.91 13.91 15.91 13.91 15.294 14.053C14.5557 14.0648 13.8426 13.7844 13.31 13.273C13.0627 13.1083 12.8123 12.95 12.559 12.798C12.292 12.638 12.029 12.473 11.77 12.298C11.6207 12.1987 11.4703 12.101 11.319 12.005L11.219 11.94L11.019 11.816L10.929 11.759L10.85 11.709C10.7792 11.6624 10.7159 11.6054 10.662 11.54C10.633 11.272 10.633 11.272 10.723 11.125C10.7762 11.0886 10.8368 11.0644 10.9004 11.0542C10.964 11.044 11.0291 11.048 11.091 11.066C11.2391 11.1424 11.3818 11.229 11.518 11.325L11.769 11.489L11.899 11.574C12.099 11.706 12.304 11.834 12.508 11.962C12.788 12.1393 13.0676 12.317 13.347 12.495L13.437 12.552L13.903 12.852L14.003 12.916L14.188 13.036C14.4492 13.2771 14.7947 13.4061 15.15 13.395C15.2805 13.3606 15.4018 13.298 15.5055 13.2116C15.6092 13.1252 15.6926 13.0171 15.75 12.895C15.8053 12.8037 15.86 12.7117 15.914 12.619C15.986 12.497 16.061 12.377 16.136 12.258C16.362 11.9 16.583 11.539 16.805 11.178C17.0503 10.778 17.2973 10.3803 17.546 9.98499C17.8073 9.56699 18.067 9.14832 18.325 8.72899C18.4817 8.47499 18.6387 8.22166 18.796 7.96899L18.854 7.87599C18.9353 7.74266 19.017 7.61299 19.099 7.48699L19.174 7.36899L19.237 7.26899C19.3085 7.13948 19.3431 6.99281 19.337 6.84499L19.343 6.72599C19.3146 6.52555 19.2114 6.3433 19.054 6.21599C18.966 6.15399 18.876 6.09599 18.784 6.03999L18.684 5.97499L18.465 5.83699L18.117 5.61799L17.642 5.31799C17.438 5.18932 17.2347 5.05999 17.032 4.92999L16.941 4.87199L16.585 4.64399C16.2123 4.40465 15.839 4.16666 15.465 3.92999C15.181 3.75066 14.8973 3.57032 14.614 3.38899L14.524 3.33199L14.06 3.03199C13.9053 2.93199 13.75 2.83199 13.594 2.73199L13.386 2.59899C13.2876 2.52708 13.1755 2.4762 13.0566 2.44954C12.9378 2.42287 12.8147 2.42098 12.695 2.44399C12.275 2.56699 12.085 3.01299 11.871 3.36499L11.715 3.61899L11.637 3.74599C11.533 3.91599 11.428 4.08532 11.322 4.25399L11.265 4.34599L11.04 4.70699C10.7793 5.12499 10.5197 5.54365 10.261 5.96299C10.1423 6.15565 10.023 6.34799 9.90298 6.53999L9.837 6.63999L9.71499 6.83399L9.66101 6.92099L9.613 6.99599C9.57663 7.06232 9.55412 7.13536 9.5469 7.21067C9.53968 7.28597 9.54787 7.36195 9.57098 7.43399L9.58398 7.51199C9.59865 7.59799 9.61332 7.68432 9.62799 7.77099L9.65899 7.95599C9.68166 8.08932 9.70432 8.22265 9.72699 8.35599C9.76299 8.56665 9.79865 8.77766 9.83398 8.98899C9.92798 9.55165 10.0227 10.114 10.118 10.676C10.1807 11.0447 10.2427 11.4137 10.304 11.783C10.3393 11.9923 10.3747 12.2017 10.41 12.411C10.432 12.5443 10.454 12.6753 10.476 12.804C10.486 12.864 10.4963 12.9243 10.507 12.985C10.7 14.098 10.7 14.098 10.433 14.574C10.2221 14.829 9.95821 15.0351 9.65961 15.1777C9.361 15.3204 9.03491 15.3962 8.70401 15.4L8.51401 15.433L8.00198 15.521L7.681 15.576L6.55899 15.767L5.517 15.945L4.617 16.099L4.082 16.191L3.582 16.277L3.39899 16.309C3.11031 16.3991 2.80635 16.4296 2.50552 16.3987C2.20469 16.3677 1.91327 16.276 1.64899 16.129C1.2951 15.7894 1.08378 15.3278 1.05798 14.838L1.031 14.678C1.007 14.5333 0.982983 14.3883 0.958983 14.243C0.934983 14.0977 0.909661 13.9447 0.882994 13.784C0.834994 13.4933 0.787012 13.2027 0.739012 12.912C0.680345 12.5533 0.621003 12.195 0.561003 11.837L0.497984 11.455L0.481993 11.361C0.447326 11.1517 0.413987 10.9423 0.381987 10.733L0.339995 10.479L0.312987 10.314C0.26432 10.02 0.214666 9.72599 0.164 9.43199L0.136992 9.27499C0.120325 9.17832 0.10333 9.08166 0.0859968 8.98499C-0.0685908 8.45943 -0.0130183 7.89437 0.240996 7.40899C0.4037 7.2044 0.608619 7.0373 0.841765 6.91908C1.07491 6.80087 1.33081 6.73433 1.59201 6.72399L1.71301 6.70399L1.836 6.68199C2.326 6.59799 2.326 6.59799 2.518 6.72199C2.57513 6.81472 2.60398 6.92211 2.60101 7.03099C2.58598 7.08223 2.56044 7.12977 2.526 7.17058C2.49156 7.21138 2.44898 7.24456 2.401 7.26799L2.30099 7.28999L2.177 7.31799C2.055 7.34199 1.933 7.36199 1.811 7.38299L1.69699 7.40199L1.47198 7.43799C1.21404 7.45833 0.973494 7.57593 0.79901 7.76699C0.723615 7.9161 0.678357 8.07861 0.665831 8.24522C0.653305 8.41184 0.673759 8.57928 0.726011 8.73799L0.749998 8.88399C0.771332 9.01732 0.793341 9.15066 0.816008 9.28399C0.838674 9.41732 0.861985 9.55732 0.885985 9.70399C0.924651 9.94065 0.963996 10.177 1.004 10.413C1.044 10.649 1.08365 10.888 1.12298 11.13L1.138 11.218L1.16699 11.393C1.25632 11.9323 1.34634 12.4713 1.43701 13.01C1.48701 13.3073 1.53666 13.6047 1.586 13.902C1.614 14.07 1.64232 14.2367 1.67099 14.402C1.68366 14.478 1.69632 14.5537 1.70898 14.629C1.72565 14.731 1.74298 14.833 1.76098 14.935L1.77499 15.023C1.80593 15.1931 1.87802 15.3531 1.98498 15.489V15.568C2.45013 15.758 2.96724 15.7785 3.44598 15.626L3.63598 15.594L4.147 15.506L4.68399 15.414L5.58398 15.259L6.62399 15.081L7.62399 14.909L8.04999 14.836L8.54999 14.75L8.733 14.719C9.10449 14.7254 9.46623 14.6 9.754 14.365L9.80798 14.296C9.98266 13.8632 9.99192 13.3812 9.83398 12.942L9.802 12.75C9.77333 12.5773 9.74433 12.4047 9.71499 12.232C9.68566 12.0593 9.65532 11.878 9.62399 11.688C9.57332 11.3833 9.52234 11.079 9.47101 10.775C9.41234 10.4237 9.35368 10.0723 9.29501 9.72099C9.23901 9.38165 9.18267 9.04265 9.12601 8.70399L9.05398 8.27199C9.02598 8.10265 8.99766 7.93332 8.96899 7.76399L8.93799 7.57799C8.9348 7.19926 8.80648 6.83221 8.573 6.53399L8.50101 6.46899C8.22303 6.33237 7.90365 6.30593 7.60699 6.39499L7.47699 6.41699L7.05301 6.49199L6.75299 6.54299L5.97601 6.67899L4.73099 6.89599L4.297 6.97299L4.031 7.01899L3.90899 7.04099C3.48699 7.11299 3.487 7.11299 3.294 7.00299C3.22836 6.88283 3.21256 6.74169 3.25 6.60999C3.28942 6.55311 3.34048 6.50524 3.39978 6.46956C3.45908 6.43387 3.52527 6.41118 3.59399 6.40299L3.711 6.38199L3.83999 6.36099L3.978 6.33699L4.28699 6.28399C4.47099 6.25299 4.654 6.21999 4.837 6.18399L5.77499 6.01899L6.31799 5.91899L6.854 5.82499L7.05398 5.78999C7.39088 5.7243 7.73282 5.68783 8.07599 5.68099H8.16199C8.33764 5.6827 8.51116 5.7198 8.67215 5.79007C8.83314 5.86034 8.97831 5.96235 9.099 6.08999C9.15166 6.15665 9.20367 6.22332 9.255 6.28999C9.603 5.75299 9.94198 5.20999 10.278 4.66399C10.3806 4.49666 10.4843 4.32999 10.589 4.16399L10.646 4.07199L10.759 3.89099L10.991 3.51899L11.108 3.33199C11.2087 3.17132 11.3087 3.00965 11.408 2.84699C11.5157 2.60687 11.6704 2.39072 11.8629 2.21126C12.0555 2.0318 12.2819 1.89265 12.529 1.80199C12.836 1.76702 13.1469 1.7982 13.4408 1.89341C13.7347 1.98862 14.0048 2.14567 14.233 2.35399Z" fill="#777777"/>
<path d="M7.75504 11.771C7.87502 11.8413 7.97945 11.9352 8.06197 12.0472C8.14449 12.1591 8.20337 12.2866 8.23504 12.422C8.27615 12.7259 8.20273 13.0343 8.02904 13.287C7.82918 13.4909 7.55653 13.6071 7.27104 13.61C7.02109 13.6011 6.78234 13.504 6.59704 13.336C6.48886 13.2187 6.40772 13.0791 6.35934 12.9271C6.31096 12.775 6.29652 12.6142 6.31704 12.456C6.3635 12.2113 6.49753 11.992 6.69404 11.839C6.84854 11.7336 7.02856 11.6716 7.21523 11.6597C7.40189 11.6477 7.58834 11.6862 7.75504 11.771ZM6.90104 12.428C6.85054 12.5566 6.85054 12.6995 6.90104 12.828C6.97123 12.9403 7.08307 13.0201 7.21204 13.05C7.27937 13.0569 7.34739 13.0499 7.4119 13.0294C7.4764 13.009 7.53602 12.9755 7.58704 12.931C7.63406 12.8747 7.66753 12.8084 7.68487 12.7371C7.7022 12.6659 7.70295 12.5916 7.68704 12.52C7.6282 12.3813 7.51776 12.2708 7.37904 12.212C7.28626 12.1974 7.19123 12.21 7.10549 12.2483C7.01975 12.2867 6.94699 12.3491 6.89604 12.428H6.90104Z" fill="#777777"/>
<path d="M15.038 9.62301C15.2702 9.77611 15.4404 10.0069 15.518 10.274C15.5583 10.5794 15.4826 10.8887 15.306 11.141C15.1924 11.2507 15.0569 11.3351 14.9083 11.3885C14.7597 11.442 14.6014 11.4633 14.444 11.451C14.2328 11.4262 14.0351 11.3344 13.88 11.189C13.7718 11.0717 13.6907 10.9321 13.6423 10.7801C13.5939 10.628 13.5795 10.4672 13.6 10.309C13.6465 10.0643 13.7805 9.84499 13.977 9.69201C14.1315 9.58672 14.3115 9.52478 14.4981 9.51264C14.6847 9.50051 14.8711 9.53862 15.038 9.62301ZM14.184 10.28C14.1367 10.4092 14.1367 10.5509 14.184 10.68C14.2465 10.7668 14.3288 10.8374 14.424 10.886C14.501 10.9033 14.5808 10.9033 14.6577 10.886C14.7347 10.8687 14.8068 10.8346 14.869 10.786C14.916 10.7297 14.9495 10.6634 14.9668 10.5921C14.9842 10.5209 14.9849 10.4466 14.969 10.375C14.9102 10.2363 14.7997 10.1258 14.661 10.067C14.5686 10.0524 14.4739 10.0648 14.3884 10.1028C14.3028 10.1407 14.2301 10.2026 14.179 10.281L14.184 10.28Z" fill="#777777"/>
<path d="M17.392 6.68898C17.4958 6.77015 17.5826 6.87104 17.6473 6.98585C17.712 7.10066 17.7533 7.22713 17.769 7.35798C17.7778 7.61909 17.7081 7.87685 17.569 8.09798C17.4525 8.21078 17.3136 8.29789 17.1613 8.3537C17.0091 8.40951 16.8468 8.43277 16.685 8.42198C16.5554 8.41057 16.4294 8.37358 16.3143 8.31316C16.1991 8.25274 16.097 8.17009 16.014 8.06998C15.8578 7.81375 15.7972 7.51055 15.843 7.21398C15.921 6.95595 16.0921 6.73608 16.323 6.59698C16.4927 6.51382 16.6819 6.47844 16.8703 6.49465C17.0586 6.51086 17.239 6.57804 17.392 6.68898ZM16.429 7.23898C16.3763 7.34811 16.3626 7.47196 16.39 7.58998C16.4356 7.68903 16.5041 7.77577 16.59 7.84298C16.7364 7.88961 16.8945 7.88359 17.037 7.82598C17.1234 7.75705 17.1857 7.66253 17.215 7.55598C17.2262 7.42464 17.1931 7.29332 17.121 7.18298C17.0317 7.09443 16.9143 7.03994 16.789 7.02898C16.6484 7.05927 16.5216 7.13479 16.428 7.24398L16.429 7.23898Z" fill="#777777"/>
<path d="M14.064 4.80298C14.1706 4.89897 14.2569 5.01548 14.3175 5.14554C14.3782 5.2756 14.412 5.41656 14.417 5.55998C14.4152 5.83073 14.3104 6.09065 14.124 6.28698C14.0107 6.38332 13.8788 6.45539 13.7366 6.49873C13.5943 6.54208 13.4447 6.55578 13.297 6.53898C13.1547 6.51187 13.0195 6.45636 12.8992 6.37578C12.7789 6.29519 12.6761 6.19119 12.597 6.06998C12.464 5.82037 12.4332 5.52888 12.511 5.25698C12.5616 5.12365 12.6385 5.00186 12.7371 4.89879C12.8357 4.79573 12.954 4.7135 13.085 4.65698C13.2474 4.59806 13.422 4.58055 13.5929 4.60604C13.7639 4.63153 13.9258 4.69922 14.064 4.80298ZM13.171 5.24298C13.083 5.3298 13.0284 5.44489 13.017 5.56798C13.0296 5.69073 13.084 5.80542 13.171 5.89298C13.2634 5.96725 13.3808 6.00306 13.499 5.99298C13.5694 5.97853 13.6358 5.94907 13.6938 5.90662C13.7518 5.86417 13.7999 5.80972 13.835 5.74698C13.8654 5.62553 13.8608 5.49798 13.822 5.37898C13.7518 5.27834 13.6528 5.2013 13.538 5.15798C13.4743 5.14544 13.4086 5.14654 13.3454 5.16119C13.2821 5.17584 13.2227 5.20371 13.171 5.24298Z" fill="#777777"/>
<path d="M3.40204 8.88201C3.51815 8.95757 3.61783 9.05575 3.69515 9.17069C3.77246 9.28564 3.82582 9.41498 3.85204 9.551C3.88473 9.81644 3.82084 10.0848 3.67204 10.307C3.50291 10.5141 3.26043 10.6481 2.99504 10.681C2.85722 10.6967 2.71764 10.6831 2.58545 10.641C2.45327 10.599 2.33146 10.5294 2.22804 10.437C2.12478 10.3462 2.04297 10.2336 1.9885 10.1074C1.93403 9.98117 1.90825 9.84441 1.91304 9.707C1.90577 9.45809 1.99747 9.21644 2.16804 9.035C2.3271 8.87536 2.53502 8.77356 2.75867 8.74583C2.98232 8.7181 3.20881 8.76604 3.40204 8.88201ZM2.51604 9.482C2.46515 9.60092 2.45325 9.7329 2.48204 9.859C2.53917 9.96725 2.62724 10.056 2.73504 10.114C2.8444 10.1386 2.95837 10.1335 3.06504 10.099C3.17512 10.0238 3.25902 9.91613 3.30504 9.791C3.30686 9.70604 3.28924 9.62178 3.25354 9.54466C3.21784 9.46754 3.165 9.3996 3.09904 9.34601C3.00145 9.29656 2.88952 9.2832 2.78303 9.30826C2.67654 9.33333 2.58233 9.39522 2.51704 9.483L2.51604 9.482Z" fill="#777777"/>
<path d="M12.231 7.88301C12.3359 7.99068 12.4156 8.1202 12.4645 8.26232C12.5135 8.40443 12.5303 8.55561 12.514 8.70501C12.4845 8.96127 12.3578 9.19643 12.16 9.36201C12.0419 9.44553 11.9085 9.50494 11.7675 9.53686C11.6265 9.56877 11.4805 9.57256 11.338 9.54801C11.0921 9.49559 10.8766 9.34872 10.738 9.13901C10.5994 8.91996 10.544 8.65843 10.582 8.40201C10.6343 8.1428 10.7871 7.91484 11.007 7.76801C11.1964 7.65337 11.4176 7.60265 11.638 7.62336C11.8584 7.64407 12.0663 7.7351 12.231 7.88301ZM11.269 8.26601C11.1868 8.33778 11.1352 8.43836 11.125 8.54701C11.1242 8.66772 11.1644 8.78512 11.239 8.88001C11.3364 8.95714 11.4535 9.00531 11.577 9.01901C11.7047 8.9921 11.819 8.92134 11.9 8.81901C11.9595 8.71226 11.9786 8.5877 11.954 8.46801C11.9228 8.39469 11.876 8.3291 11.8167 8.27588C11.7574 8.22266 11.6872 8.18311 11.611 8.16001C11.4891 8.15472 11.3692 8.19221 11.272 8.26601H11.269Z" fill="#777777"/>
<path d="M13.1649 0.550985C13.2412 0.606554 13.2993 0.68345 13.3319 0.771985C13.3387 0.862932 13.3163 0.953675 13.2679 1.03098C13.2252 1.06513 13.1753 1.08908 13.1219 1.10104C13.0685 1.113 13.0131 1.11263 12.9599 1.09998L12.8509 1.04898C12.691 0.980849 12.5142 0.963059 12.3439 0.997985C12.1764 1.06972 12.0335 1.18896 11.9329 1.34098C11.8972 1.37014 11.8554 1.391 11.8106 1.40206C11.7658 1.41313 11.7192 1.41413 11.6739 1.40498C11.6047 1.39787 11.5398 1.36757 11.4899 1.31898C11.4369 1.22067 11.424 1.10561 11.4539 0.997985C11.6302 0.721394 11.9044 0.521629 12.2217 0.438732C12.539 0.355835 12.8759 0.395932 13.1649 0.550985Z" fill="#777777"/>
<path d="M16.374 14.763C16.4235 14.7915 16.4664 14.8301 16.5 14.8763C16.5336 14.9225 16.5571 14.9752 16.569 15.031C16.4985 15.2622 16.3416 15.4573 16.131 15.576C15.8344 15.753 15.4818 15.8112 15.144 15.739C14.97 15.7032 14.8118 15.6133 14.692 15.482C14.6688 15.435 14.6576 15.383 14.6595 15.3306C14.6614 15.2782 14.6764 15.2271 14.703 15.182C14.7316 15.1313 14.7768 15.092 14.831 15.071C14.9518 15.0535 15.0751 15.0712 15.186 15.122C15.345 15.1952 15.5258 15.2056 15.692 15.151C15.8382 15.0856 15.964 14.982 16.056 14.851C16.146 14.741 16.243 14.747 16.374 14.763Z" fill="#777777"/>
</svg>
