<svg width="19" height="19" viewBox="0 0 19 19" fill="none" xmlns="http://www.w3.org/2000/svg">
<path d="M2.10201 0.594001H4.29101C4.40129 0.60237 4.50619 0.645029 4.59101 0.716001C4.70102 0.900938 4.74409 1.11808 4.71301 1.331V1.442C4.71301 1.764 4.71301 1.764 4.59001 1.909C4.43001 2.053 4.43001 2.053 4.33801 2.053V2.305C4.62601 2.092 4.91101 1.877 5.19001 1.652C5.36601 1.514 5.54501 1.371 5.72601 1.238L5.78801 1.193C5.88664 1.11457 6.00057 1.05761 6.12248 1.02575C6.2444 0.993893 6.37162 0.987848 6.49601 1.008C6.75215 1.11135 6.98554 1.26389 7.18301 1.457C7.31401 1.557 7.44601 1.662 7.57701 1.765L7.74501 1.896L8.13601 2.196C8.35135 2.36133 8.56568 2.528 8.77901 2.696L9.25301 3.063C9.43968 3.20633 9.62601 3.35067 9.81201 3.496C10.0787 3.70133 10.343 3.90567 10.605 4.109C10.8983 4.33367 11.1907 4.55967 11.482 4.787L11.975 5.168C12.1157 5.27667 12.256 5.38567 12.396 5.495L12.482 5.562C12.5289 5.59728 12.5674 5.64245 12.5949 5.69429C12.6224 5.74614 12.6381 5.80339 12.641 5.862C12.6224 6.03929 12.5441 6.205 12.419 6.332L12.361 6.412C12.086 6.786 12.086 6.786 11.908 6.848C11.6375 6.81136 11.3882 6.68158 11.203 6.481L11.113 6.41L10.895 6.236V6.357C10.895 6.40967 10.8933 6.46233 10.89 6.515V6.595C10.895 6.65143 10.8874 6.70827 10.8677 6.76137C10.848 6.81448 10.8166 6.86252 10.776 6.902C10.731 6.93269 10.68 6.95347 10.6264 6.96295C10.5728 6.97244 10.5178 6.97041 10.465 6.957C10.3765 6.89759 10.3125 6.80804 10.285 6.705C10.285 6.636 10.285 6.566 10.294 6.497C10.3423 6.21176 10.3097 5.91869 10.2 5.651C10.0676 5.52617 9.91645 5.42291 9.75201 5.345C9.62806 5.26831 9.51125 5.18062 9.40301 5.083C9.22001 4.934 9.03401 4.791 8.84401 4.65C8.65401 4.509 8.46901 4.366 8.28501 4.217C8.07701 4.049 7.86501 3.887 7.65101 3.728C7.49368 3.61067 7.33868 3.49133 7.18601 3.37L7.00101 3.224L6.85801 3.111L6.62301 2.928L6.54902 2.869L6.47901 2.816L6.41801 2.768C6.39983 2.7524 6.37766 2.74218 6.354 2.73847C6.33033 2.73476 6.30609 2.73771 6.28401 2.747C6.16893 2.80192 6.06355 2.87522 5.97201 2.964L5.82601 3.083L5.74901 3.145C5.62501 3.245 5.49901 3.345 5.37201 3.437C5.15535 3.60167 4.93968 3.76833 4.72501 3.937C4.54235 4.07967 4.35901 4.22167 4.17501 4.363C3.99101 4.50433 3.80468 4.64867 3.61601 4.796L3.04401 5.24C2.99301 5.279 2.94401 5.319 2.89201 5.36C2.83898 5.40077 2.78081 5.4344 2.71901 5.46C2.6385 5.49155 2.5655 5.53962 2.5047 5.60111C2.4439 5.66259 2.39665 5.73614 2.36601 5.817C2.33414 6.07771 2.3251 6.34071 2.33901 6.603C2.33901 6.69233 2.33901 6.78167 2.33901 6.871C2.33901 7.063 2.33901 7.25467 2.33901 7.446C2.33901 7.723 2.33901 8 2.33901 8.277C2.33901 8.72633 2.33901 9.176 2.33901 9.626C2.33901 10.0627 2.33901 10.4993 2.33901 10.936C2.33901 10.963 2.33901 10.99 2.33901 11.018C2.33901 11.1513 2.33901 11.2863 2.33901 11.423C2.33901 12.543 2.34168 13.6633 2.34701 14.784H2.44201H2.56801H2.69201C3.06275 14.8148 3.41046 14.9764 3.67301 15.24C3.73158 15.301 3.78354 15.3681 3.82801 15.44C3.85877 15.4815 3.89807 15.5159 3.94327 15.5409C3.98847 15.566 4.03851 15.581 4.09001 15.585C4.14934 15.5903 4.20835 15.5937 4.26701 15.595H4.36001C4.43993 15.6053 4.52113 15.5973 4.59751 15.5716C4.67389 15.546 4.74347 15.5034 4.80101 15.447L4.87201 15.366C4.99548 15.2498 5.14295 15.162 5.30401 15.109L5.40401 15.064C5.88104 14.9471 6.38462 15.0146 6.81401 15.253C7.20542 15.5018 7.48476 15.893 7.59301 16.344C7.60936 16.4767 7.61505 16.6104 7.61001 16.744C7.61001 16.771 7.61001 16.797 7.61001 16.825C7.61001 16.8917 7.61001 16.9583 7.61001 17.025H7.68901C7.78871 17.0157 7.88917 17.0304 7.98205 17.0678C8.07493 17.1052 8.15754 17.1642 8.22301 17.24C8.32298 17.5666 8.34759 17.9115 8.29501 18.249H10.314C10.314 17.937 10.314 17.624 10.309 17.302C10.309 17.0793 10.309 16.8563 10.309 16.633C10.309 16.3443 10.309 16.0553 10.309 15.766C10.309 15.5373 10.309 15.3087 10.309 15.08C10.309 14.9587 10.309 14.8377 10.309 14.717C10.309 14.582 10.309 14.447 10.309 14.311C10.309 14.271 10.309 14.231 10.309 14.19C10.2967 14.0968 10.3048 14.002 10.3327 13.9122C10.3607 13.8224 10.4079 13.7397 10.471 13.67C10.6085 13.5681 10.7804 13.5239 10.95 13.547H11.963H12.509H13.497C13.6202 13.5389 13.742 13.5767 13.839 13.653C13.906 13.7163 13.957 13.7947 13.9876 13.8817C14.0182 13.9686 14.0276 14.0617 14.015 14.153C14.015 14.179 14.015 14.205 14.015 14.232C14.015 14.318 14.015 14.405 14.015 14.491C14.015 14.551 14.015 14.611 14.015 14.671C14.015 14.797 14.015 14.9227 14.015 15.048C14.015 15.2093 14.015 15.3707 14.015 15.532C14.015 15.656 14.015 15.78 14.015 15.904C14.015 15.9633 14.015 16.0227 14.015 16.082C14.015 16.165 14.015 16.248 14.015 16.331C14.015 16.378 14.015 16.426 14.015 16.474C14.0125 16.528 13.9963 16.5804 13.968 16.6264C13.9396 16.6724 13.9001 16.7105 13.853 16.737C13.7572 16.7749 13.6513 16.7788 13.553 16.748C13.4874 16.7018 13.4397 16.6343 13.418 16.557C13.4104 16.4779 13.4078 16.3984 13.41 16.319C13.41 16.295 13.41 16.271 13.41 16.246C13.41 16.169 13.41 16.092 13.41 16.014C13.41 15.967 13.41 15.919 13.41 15.871C13.41 15.6943 13.41 15.5173 13.41 15.34C13.41 14.94 13.41 14.549 13.41 14.14H10.887V18.249H13.41V17.636C13.518 17.492 13.518 17.492 13.64 17.458C13.6964 17.452 13.7535 17.4583 13.8072 17.4767C13.8609 17.495 13.91 17.5248 13.951 17.564C14.0145 17.7867 14.0268 18.0209 13.987 18.249H16.126C16.13 17.5217 16.132 16.794 16.132 16.066C16.132 15.728 16.132 15.39 16.132 15.052C16.132 14.7573 16.132 14.4627 16.132 14.168C16.132 14.012 16.132 13.856 16.132 13.7C16.132 13.544 16.132 13.406 16.132 13.259C16.132 13.205 16.132 13.1513 16.132 13.098C16.1483 12.9975 16.1446 12.8949 16.121 12.7958C16.0975 12.6968 16.0547 12.6034 15.995 12.521C15.897 12.4406 15.7938 12.3668 15.686 12.3C15.646 12.27 15.607 12.239 15.568 12.207L15.468 12.131L15.35 12.04L15.287 11.992C15.1537 11.8913 15.0227 11.7913 14.894 11.692C14.708 11.5473 14.5217 11.403 14.335 11.259C14.1197 11.0937 13.9053 10.927 13.692 10.759C13.498 10.6077 13.3033 10.4573 13.108 10.308C12.9227 10.1653 12.7383 10.022 12.555 9.878L12.475 9.816L12.404 9.761C12.334 9.707 12.263 9.653 12.191 9.6C12.0974 9.64373 12.0086 9.69702 11.926 9.759L11.857 9.811L11.784 9.867L11.707 9.925C11.513 10.072 11.323 10.225 11.134 10.376C10.945 10.527 10.758 10.669 10.566 10.811C10.374 10.953 10.175 11.111 9.98201 11.262C9.60901 11.562 9.23201 11.848 8.85401 12.138L8.40701 12.485C8.18435 12.6583 7.96135 12.8307 7.73801 13.002L7.44701 13.228L7.35901 13.297L7.18801 13.432C6.81202 13.726 6.81201 13.726 6.64101 13.727H6.57101C6.34801 13.673 6.21801 13.446 6.09101 13.272L6.03201 13.192C5.82601 12.914 5.82601 12.914 5.83201 12.706C5.89801 12.376 6.35001 12.145 6.60301 11.96C6.71201 11.88 6.81802 11.796 6.92402 11.712L7.04701 11.612L7.11101 11.561C7.46368 11.2837 7.81835 11.0087 8.17501 10.736L8.62201 10.389C8.92535 10.153 9.22968 9.91967 9.53501 9.689L9.59601 9.642L9.76201 9.515L9.81701 9.47C9.8669 9.43196 9.92012 9.39849 9.97601 9.37C10.0513 9.33588 10.1177 9.28468 10.1697 9.22045C10.2218 9.15623 10.2582 9.08074 10.276 9C10.2856 8.83881 10.2856 8.67719 10.276 8.516C10.276 8.43267 10.276 8.349 10.276 8.265C10.276 8.213 10.276 8.16133 10.276 8.11C10.2659 7.97876 10.2922 7.84727 10.352 7.73C10.3892 7.69846 10.4333 7.67613 10.4807 7.66484C10.5282 7.65355 10.5776 7.6536 10.625 7.665C10.785 7.703 10.785 7.703 10.857 7.802C10.8681 7.86805 10.8718 7.93513 10.868 8.002C10.868 8.041 10.868 8.079 10.868 8.119V8.241C10.868 8.282 10.868 8.323 10.868 8.365C10.868 8.46567 10.8663 8.56567 10.863 8.665L10.95 8.598L11.2 8.406C11.2833 8.33933 11.366 8.27467 11.448 8.212C11.6607 7.99932 11.9473 7.87682 12.248 7.87C12.5465 7.95107 12.8171 8.11262 13.03 8.337C13.179 8.464 13.33 8.582 13.49 8.699C13.6973 8.853 13.9023 9.01 14.105 9.17C14.259 9.29133 14.414 9.41167 14.57 9.531C14.7407 9.66433 14.911 9.79767 15.081 9.931C15.267 10.0757 15.4533 10.22 15.64 10.364C15.8553 10.5293 16.0697 10.696 16.283 10.864L16.757 11.231C16.9437 11.3743 17.13 11.5187 17.316 11.664C17.78 12.031 17.78 12.031 18.258 12.38C18.458 12.527 18.458 12.527 18.481 12.668C18.4852 12.7777 18.4665 12.8872 18.426 12.9893C18.3856 13.0914 18.3243 13.1839 18.246 13.261L18.183 13.347C17.919 13.698 17.919 13.698 17.69 13.747C17.4768 13.703 17.2829 13.5928 17.136 13.432L16.703 13.108V18.263H17.603C17.747 18.371 17.747 18.371 17.781 18.475C17.7859 18.5286 17.7789 18.5826 17.7606 18.6333C17.7422 18.6839 17.713 18.7299 17.675 18.768C17.5451 18.8412 17.3947 18.8697 17.247 18.849H0.696014C0.532014 18.8501 0.370612 18.808 0.228012 18.727C0.00701194 18.5 0.0410117 18.257 0.0410117 17.956V17.814C0.0264924 17.6005 0.0664068 17.3868 0.157013 17.193C0.167679 17.1137 0.177345 17.034 0.186012 16.954C0.20287 16.757 0.267019 16.5669 0.373012 16.4L0.436012 16.3C0.54335 16.1919 0.668087 16.1027 0.805012 16.036H0.877014L0.892013 15.97C0.997622 15.5867 1.23483 15.2529 1.56201 15.027L1.65601 14.991C1.74701 14.93 1.74701 14.93 1.75601 14.852C1.76501 14.774 1.76301 14.669 1.76101 14.576V14.468C1.76101 14.348 1.76101 14.229 1.76101 14.109C1.76101 14.0237 1.76101 13.938 1.76101 13.852C1.76101 13.6433 1.76101 13.4347 1.76101 13.226C1.76101 12.9833 1.76101 12.7407 1.76101 12.498C1.76101 12.0653 1.76101 11.632 1.76101 11.198C1.76101 10.7773 1.76101 10.3567 1.76101 9.936C1.76101 9.91 1.76101 9.884 1.76101 9.857C1.76101 9.72367 1.76101 9.59367 1.76101 9.467C1.76101 8.38833 1.75801 7.30933 1.75201 6.23L1.65201 6.31L1.51701 6.417L1.45001 6.47C0.977012 6.843 0.977015 6.843 0.744015 6.843C0.557912 6.73468 0.397818 6.58688 0.275013 6.41L0.200012 6.32C0.0704395 6.17951 -0.00103374 5.99511 1.13003e-05 5.804C0.101982 5.59164 0.268156 5.41672 0.475014 5.304L0.631012 5.19L0.709015 5.132C0.838015 5.032 0.965013 4.939 1.08801 4.832C1.20158 4.73752 1.32417 4.65446 1.45401 4.584C1.68953 4.48299 1.87617 4.29384 1.97401 4.057C2.01308 3.7563 2.02178 3.45244 2.00001 3.15C2.00001 3.025 1.99501 2.9 1.99401 2.775C1.99401 2.531 1.98501 2.287 1.97501 2.044L1.87501 2.013C1.81934 1.99514 1.76783 1.96628 1.72351 1.92815C1.67919 1.89002 1.64298 1.84338 1.61701 1.791C1.57765 1.63355 1.56248 1.47102 1.57201 1.309V1.217C1.55659 1.05069 1.59859 0.884119 1.69101 0.745001C1.74358 0.690301 1.8079 0.64828 1.8791 0.622119C1.95031 0.595957 2.02654 0.586342 2.10201 0.594001ZM2.13801 1.153V1.514H4.12101V1.153H2.13801ZM6.04501 1.734L5.92001 1.834L5.85201 1.889C5.72101 1.989 5.58802 2.096 5.45201 2.199L5.28401 2.33C5.11735 2.46 4.95068 2.58933 4.78401 2.718L4.33701 3.065C4.11435 3.23833 3.89101 3.411 3.66701 3.583L3.22001 3.93C2.92001 4.16333 2.62001 4.39667 2.32001 4.63C2.06401 4.83 1.80868 5.02767 1.55401 5.223C1.42801 5.32167 1.30135 5.41933 1.17401 5.516L1.11001 5.565L0.942013 5.692C0.844053 5.77247 0.751207 5.85897 0.664013 5.951L0.844013 6.167C1.10617 5.99625 1.35857 5.81097 1.60001 5.612C1.73301 5.512 1.86601 5.403 2.00001 5.3L2.08401 5.235C2.27801 5.08433 2.47268 4.934 2.66801 4.784L3.11501 4.437C3.33768 4.26367 3.56101 4.091 3.78501 3.919L4.23201 3.572C4.45468 3.39867 4.67834 3.226 4.90301 3.054C5.02301 2.962 5.14201 2.868 5.26201 2.775L5.59401 2.518L5.75301 2.394L5.97201 2.225L6.03701 2.174C6.11956 2.10579 6.21731 2.05846 6.32201 2.036C6.46508 2.0732 6.59603 2.14694 6.70201 2.25L6.77801 2.309L7.00801 2.491L7.14101 2.591L7.39201 2.791C7.52501 2.896 7.66002 3 7.79202 3.103C7.96268 3.23633 8.13301 3.36967 8.30301 3.503C8.48901 3.64767 8.67535 3.792 8.86201 3.936C9.07735 4.10133 9.29168 4.268 9.50501 4.436L9.97901 4.803C10.1657 4.94633 10.352 5.09067 10.538 5.236C10.944 5.552 11.351 5.866 11.764 6.173C11.8284 6.11758 11.8886 6.05742 11.944 5.993C11.957 5.885 11.957 5.885 11.892 5.832L11.819 5.777L11.738 5.715L11.65 5.649L11.56 5.58L11.379 5.443C11.273 5.363 11.167 5.281 11.062 5.2L10.95 5.114C10.772 4.97733 10.5947 4.83967 10.418 4.701L9.94401 4.334C9.75735 4.19067 9.57101 4.04633 9.38501 3.901C9.11835 3.69567 8.85401 3.49133 8.59201 3.288C8.33001 3.08467 8.06568 2.88033 7.79902 2.675C7.57568 2.501 7.35201 2.328 7.12801 2.156C7.03301 2.084 6.94001 2.01 6.84601 1.936L6.67901 1.805L6.60001 1.741L6.52501 1.683L6.45901 1.63C6.28201 1.523 6.18001 1.626 6.04501 1.734ZM2.53501 2.054V3.714C2.64845 3.64836 2.75736 3.5752 2.86101 3.495L2.94201 3.432L3.11301 3.295C3.22677 3.18854 3.35546 3.09926 3.49501 3.03C3.60281 2.98445 3.69517 2.90875 3.76101 2.812C3.79331 2.5607 3.79331 2.3063 3.76101 2.055L2.53501 2.054ZM11.862 8.626L11.783 8.686C11.5783 8.84133 11.3757 8.999 11.175 9.159C10.725 9.515 10.269 9.864 9.81401 10.214C9.55735 10.414 9.30168 10.612 9.04701 10.808C8.85235 10.9593 8.65701 11.11 8.46101 11.26L8.01401 11.607C7.79201 11.7803 7.56901 11.9527 7.34501 12.124L7.05001 12.353L6.96001 12.423L6.78401 12.56L6.70301 12.623L6.63101 12.68C6.5907 12.7126 6.54633 12.7398 6.49901 12.761C6.54938 12.8715 6.62307 12.9697 6.71501 13.049L6.79401 12.982C7.01001 12.8 7.23001 12.625 7.45701 12.456C7.60701 12.344 7.75701 12.229 7.90201 12.114C8.08868 11.9687 8.27568 11.8237 8.46301 11.679C8.65035 11.5343 8.83668 11.39 9.02201 11.246C9.32201 11.012 9.62201 10.7787 9.92201 10.546C10.15 10.3707 10.3777 10.1947 10.605 10.018C11.062 9.662 11.062 9.662 11.277 9.499C11.371 9.427 11.462 9.354 11.553 9.279L11.635 9.213L11.792 9.084C11.8918 8.9864 12.0221 8.92603 12.161 8.913C12.2938 8.92927 12.4173 8.98946 12.512 9.084L12.633 9.184L12.698 9.239C12.827 9.345 12.96 9.447 13.092 9.549L13.26 9.68L13.651 9.98C13.8377 10.1233 14.024 10.2677 14.21 10.413C14.4767 10.6183 14.741 10.8227 15.003 11.026C15.2963 11.2513 15.589 11.4777 15.881 11.705L16.355 12.072C16.5977 12.2587 16.8397 12.4463 17.081 12.635L17.159 12.695L17.327 12.829L17.414 12.899L17.493 12.963C17.564 13.019 17.564 13.019 17.672 13.01L17.816 12.758L17.708 12.677C17.4253 12.4663 17.1453 12.252 16.868 12.034C16.7153 11.9133 16.562 11.7933 16.408 11.674L16.326 11.614C16.132 11.4633 15.9373 11.3133 15.742 11.164C15.564 11.0273 15.3867 10.8897 15.21 10.751L14.736 10.384C14.5207 10.2187 14.3063 10.052 14.093 9.884C13.8983 9.73267 13.703 9.582 13.507 9.432L13.226 9.214C12.961 9.007 12.695 8.8 12.426 8.6L12.357 8.549C12.132 8.381 12.071 8.466 11.862 8.626ZM1.63401 15.752C1.5234 15.9052 1.44732 16.0806 1.41101 16.266C1.40512 16.3127 1.38886 16.3575 1.36343 16.3971C1.33799 16.4368 1.30403 16.4702 1.26401 16.495C1.19734 16.525 1.13301 16.5537 1.07101 16.581C1.00893 16.6053 0.952496 16.642 0.905193 16.689C0.85789 16.7359 0.820729 16.7921 0.796013 16.854C0.766794 16.9163 0.75737 16.9861 0.769012 17.054H0.863014L1.73701 17.06H2.18601H2.61901H2.78401H3.01501H3.14801C3.18207 17.06 3.21567 17.0678 3.2462 17.0829C3.27673 17.098 3.30336 17.1199 3.32401 17.147C3.3655 17.2224 3.37556 17.3112 3.35201 17.394L3.33901 17.481L3.32701 17.547C3.18509 17.5775 3.04017 17.592 2.89501 17.59H2.82001H2.57701H2.40801L1.96601 17.614L1.51301 17.62L0.625011 17.631V18.244H7.72601V17.631H7.42601L6.42601 17.621L5.82601 17.615L5.24301 17.609H5.02001H4.70801H4.61501C4.47545 17.6114 4.33612 17.597 4.20001 17.566C4.19101 17.515 4.18301 17.466 4.17501 17.413L4.16101 17.327C4.15778 17.2695 4.16986 17.2123 4.19601 17.161C4.31576 17.0814 4.46087 17.0493 4.60301 17.071H4.69501L4.92001 17.065C4.94568 16.9489 4.94712 16.8288 4.92424 16.7121C4.90135 16.5955 4.85464 16.4848 4.78701 16.387C4.7143 16.3114 4.62677 16.2516 4.5299 16.2113C4.43303 16.1711 4.3289 16.1512 4.22401 16.153C4.12973 16.1534 4.03615 16.1693 3.94701 16.2C3.72301 16.22 3.72301 16.22 3.61801 16.146C3.54401 16.046 3.48101 15.946 3.41801 15.838C3.26366 15.6062 3.02887 15.4398 2.75901 15.371C2.55455 15.3314 2.34332 15.3457 2.14607 15.4125C1.94882 15.4794 1.77235 15.5963 1.63401 15.752ZM5.16702 15.86L5.13101 15.932L5.18401 16.003C5.40787 16.3039 5.51708 16.6748 5.49201 17.049H7.00601C7.08633 16.8032 7.07748 16.5369 6.98101 16.297C6.95435 16.247 6.92668 16.1973 6.89801 16.148L6.86001 16.08C6.78053 15.9592 6.67764 15.8555 6.55741 15.7751C6.43718 15.6947 6.30205 15.6393 6.16001 15.612C5.9864 15.5743 5.80646 15.5771 5.6341 15.6201C5.46173 15.6631 5.30157 15.7452 5.16601 15.86H5.16702Z" fill="#777777"/>
<path d="M5.18496 4.60799H6.11296H6.61296H7.51296C7.67469 4.60729 7.83374 4.64938 7.97396 4.72999C8.03626 4.78281 8.08588 4.84898 8.11912 4.92359C8.15235 4.99821 8.16836 5.07935 8.16596 5.16099V5.28099C8.16596 5.32499 8.16596 5.36799 8.16596 5.41299V5.55099C8.16596 5.70299 8.16596 5.85499 8.16596 6.00699V6.16299C8.16596 6.40833 8.16596 6.65399 8.16596 6.89999C8.16596 7.18333 8.16596 7.46699 8.16596 7.75099C8.16596 7.97033 8.16596 8.18933 8.16596 8.40799C8.16596 8.54133 8.16596 8.67233 8.16596 8.80099C8.16596 8.94699 8.16596 9.09299 8.16596 9.23899V9.36999C8.17991 9.46676 8.17256 9.5654 8.1444 9.65902C8.11624 9.75264 8.06797 9.83898 8.00296 9.91199C7.86545 10.0139 7.69356 10.0581 7.52396 10.035H6.51196H5.96596H4.97796C4.85478 10.0431 4.73296 10.0053 4.63596 9.92899C4.57479 9.8748 4.52711 9.80707 4.49673 9.73121C4.46635 9.65534 4.4541 9.57343 4.46096 9.49199V9.10199C4.46096 8.97666 4.46096 8.85133 4.46096 8.72599C4.46096 8.62133 4.46096 8.51666 4.46096 8.41199C4.46096 8.16466 4.46096 7.91766 4.46096 7.67099C4.46096 7.42433 4.46096 7.16966 4.46096 6.90699C4.46096 6.68833 4.46096 6.46933 4.46096 6.24999C4.46096 6.11666 4.46096 5.98599 4.46096 5.85799C4.46096 5.71199 4.46096 5.56699 4.46096 5.42099V5.29899C4.46096 4.92899 4.46096 4.92899 4.58296 4.75799C4.75891 4.63691 4.97276 4.58362 5.18496 4.60799ZM5.05896 5.19099V6.27199H6.03196V5.18999L5.05896 5.19099ZM6.60896 5.19099V6.27199H7.58196V5.18999L6.60896 5.19099ZM5.05896 6.84899V7.82299H6.03196V6.84899H5.05896ZM6.60896 6.84899V7.82299H7.58196V6.84899H6.60896ZM5.05896 8.39899V9.44399H6.03196V8.39899H5.05896ZM6.60896 8.39899V9.44399H7.58196V8.39899H6.60896Z" fill="#777777"/>
<path d="M11.438 15.427C11.4822 15.4524 11.5199 15.4877 11.5481 15.5303C11.5762 15.5728 11.594 15.6214 11.6 15.672V15.912V16.042V16.173C11.6 16.489 11.6 16.489 11.535 16.573C11.4545 16.6296 11.3573 16.6574 11.259 16.652C11.2119 16.6383 11.168 16.6152 11.13 16.5841C11.092 16.553 11.0607 16.5145 11.038 16.471C11.0014 16.324 10.9876 16.1722 10.997 16.021V15.93C10.9836 15.7815 11.012 15.6322 11.079 15.499C11.13 15.4616 11.1885 15.4357 11.2505 15.4233C11.3125 15.4108 11.3765 15.4121 11.438 15.427Z" fill="#777777"/>
</svg>
