<svg width="15" height="18" viewBox="0 0 15 18" fill="none" xmlns="http://www.w3.org/2000/svg">
<path d="M7.88898 10.063C7.26834 10.063 6.66164 9.87896 6.1456 9.53415C5.62956 9.18934 5.22735 8.69925 4.98984 8.12586C4.75234 7.55247 4.69019 6.92152 4.81127 6.31281C4.93235 5.70409 5.23122 5.14496 5.67008 4.7061C6.10893 4.26724 6.66807 3.96838 7.27678 3.8473C7.8855 3.72622 8.51644 3.78836 9.08984 4.02587C9.66323 4.26337 10.1533 4.66558 10.4981 5.18162C10.8429 5.69766 11.027 6.30436 11.027 6.925C11.027 7.33709 10.9458 7.74514 10.7881 8.12586C10.6304 8.50658 10.3993 8.85251 10.1079 9.1439C9.81649 9.43529 9.47056 9.66644 9.08984 9.82413C8.70912 9.98183 8.30107 10.063 7.88898 10.063ZM7.88898 5.042C7.51673 5.04279 7.15306 5.1539 6.84393 5.36129C6.5348 5.56867 6.29407 5.86303 6.15217 6.20717C6.01026 6.55132 5.97354 6.9298 6.04665 7.2948C6.11976 7.6598 6.29941 7.99495 6.56291 8.25789C6.82641 8.52083 7.16193 8.69977 7.52709 8.77211C7.89225 8.84444 8.27065 8.80692 8.61449 8.66428C8.95833 8.52164 9.25218 8.28029 9.45891 7.97072C9.66564 7.66115 9.77598 7.29725 9.77598 6.925C9.77598 6.4256 9.57759 5.94665 9.22446 5.59352C8.87133 5.24039 8.39238 5.042 7.89298 5.042H7.88898Z" fill="#777777"/>
<path d="M7.88897 17.594L2.59497 11.35C2.52164 11.256 2.44897 11.1617 2.37697 11.067C1.47247 9.87578 0.983811 8.42069 0.985969 6.925C0.985969 5.09421 1.71325 3.33841 3.00781 2.04384C4.30237 0.749278 6.05818 0.0219994 7.88897 0.0219994C9.71976 0.0219994 11.4756 0.749278 12.7701 2.04384C14.0647 3.33841 14.792 5.09421 14.792 6.925C14.7941 8.41992 14.3058 9.87427 13.402 11.065C13.402 11.065 13.214 11.312 13.186 11.346L7.88897 17.594ZM3.37797 10.311C3.37797 10.311 3.52497 10.504 3.55797 10.546L7.88897 15.654L12.226 10.539C12.253 10.504 12.401 10.31 12.401 10.309C13.1396 9.3356 13.5386 8.14688 13.537 6.925C13.537 5.42653 12.9417 3.98943 11.8821 2.92985C10.8225 1.87027 9.38544 1.275 7.88697 1.275C6.3885 1.275 4.9514 1.87027 3.89182 2.92985C2.83224 3.98943 2.23697 5.42653 2.23697 6.925C2.23562 8.14778 2.63539 9.33724 3.37497 10.311H3.37797Z" fill="#777777"/>
</svg>
