<svg width="13" height="21" viewBox="0 0 13 21" fill="none" xmlns="http://www.w3.org/2000/svg">
<path d="M2.5654 0.435003H5.4564C5.92307 0.435003 6.3914 0.435003 6.8614 0.435003H9.7184C10.0309 0.407666 10.3457 0.445549 10.6428 0.546251C10.9399 0.646953 11.2129 0.808279 11.4444 1.02C11.6303 1.18928 11.7805 1.39409 11.8859 1.62235C11.9914 1.85062 12.05 2.0977 12.0584 2.349C12.0584 2.407 12.0584 2.466 12.0584 2.526C12.0584 2.586 12.0584 2.654 12.0584 2.72C12.0584 2.786 12.0584 2.856 12.0584 2.927C12.0584 3.11634 12.0584 3.30567 12.0584 3.495C12.0584 3.699 12.0584 3.90334 12.0584 4.108C12.0584 4.60134 12.0584 5.09467 12.0584 5.588C12.0584 5.82067 12.0584 6.054 12.0584 6.288C12.0584 7.06067 12.0584 7.833 12.0584 8.605C12.0584 8.805 12.0584 9.005 12.0584 9.205C12.0584 9.255 12.0584 9.305 12.0584 9.356C12.0584 10.1627 12.0584 10.9697 12.0584 11.777C12.0584 12.6057 12.0584 13.4343 12.0584 14.263C12.0584 14.7297 12.0584 15.1963 12.0584 15.663C12.0584 16.059 12.0584 16.455 12.0584 16.851C12.0584 17.051 12.0584 17.253 12.0584 17.457C12.0584 17.676 12.0584 17.896 12.0584 18.115C12.0584 18.178 12.0584 18.242 12.0584 18.307C12.0653 18.5833 12.0172 18.8581 11.917 19.1156C11.8167 19.3731 11.6663 19.6082 11.4744 19.807C11.2958 20.0001 11.0793 20.1543 10.8384 20.2599C10.5975 20.3656 10.3374 20.4204 10.0744 20.421H9.3544H8.5144H8.2244H6.8634H5.2944H4.0804H3.3564H2.4254C1.79605 20.4778 1.16988 20.2825 0.684399 19.878C0.44375 19.6132 0.259603 19.3021 0.143204 18.9637C0.026805 18.6254 -0.0194062 18.2668 0.00739713 17.91V17.729C0.00739713 17.664 0.00739713 17.598 0.00739713 17.529C0.00739713 17.3497 0.00739713 17.1703 0.00739713 16.991C0.00739713 16.797 0.00739713 16.602 0.00739713 16.408C0.00739713 16.0287 0.00739713 15.649 0.00739713 15.269C0.00739713 14.9603 0.00739713 14.6517 0.00739713 14.343C0.00739713 14.299 0.00739713 14.255 0.00739713 14.209C0.00739713 14.1197 0.00739713 14.03 0.00739713 13.94C0.00739713 13.102 0.00739713 12.2637 0.00739713 11.425C0.00739713 10.707 0.00739713 9.989 0.00739713 9.271C0.00739713 8.43567 0.00739713 7.6 0.00739713 6.764C0.00739713 6.67467 0.00739713 6.58534 0.00739713 6.496C0.00739713 6.452 0.00739713 6.408 0.00739713 6.363C0.00739713 6.055 0.00739713 5.747 0.00739713 5.439C0.00739713 5.063 0.00739713 4.687 0.00739713 4.311C0.00739713 4.11967 0.00739713 3.92834 0.00739713 3.737C0.00739713 3.529 0.00739713 3.321 0.00739713 3.112V2.932C-0.0144023 2.5761 0.0363162 2.21948 0.156472 1.88377C0.276627 1.54805 0.463717 1.24024 0.706398 0.979003C1.22983 0.559141 1.89819 0.363559 2.5654 0.435003ZM1.1574 1.696C0.887847 2.11297 0.772203 2.61092 0.830399 3.104C0.830399 3.169 0.830399 3.235 0.830399 3.304C0.830399 3.484 0.830399 3.66434 0.830399 3.845C0.830399 4.04 0.830399 4.235 0.830399 4.43C0.830399 4.81134 0.830399 5.19234 0.830399 5.573C0.830399 5.883 0.830399 6.193 0.830399 6.503C0.830399 6.547 0.830399 6.591 0.830399 6.637C0.830399 6.727 0.830399 6.81667 0.830399 6.906C0.830399 7.74667 0.830399 8.58734 0.830399 9.428C0.830399 10.1487 0.830399 10.8693 0.830399 11.59C0.830399 12.428 0.830399 13.266 0.830399 14.104C0.830399 14.1933 0.830399 14.2827 0.830399 14.372C0.830399 14.416 0.830399 14.46 0.830399 14.505C0.830399 14.8143 0.830399 15.1237 0.830399 15.433C0.830399 15.8103 0.830399 16.1877 0.830399 16.565C0.830399 16.757 0.830399 16.9493 0.830399 17.142C0.830399 17.351 0.830399 17.56 0.830399 17.768C0.830399 17.828 0.830399 17.889 0.830399 17.951C0.809555 18.1956 0.838703 18.4418 0.916066 18.6748C0.993428 18.9077 1.11739 19.1225 1.2804 19.306C1.76523 19.6336 2.35671 19.7642 2.9344 19.671H9.3164C9.89135 19.7426 10.4713 19.5845 10.9304 19.231C11.0679 19.0611 11.1705 18.8656 11.2323 18.6559C11.2941 18.4462 11.3138 18.2264 11.2904 18.009C11.2904 17.909 11.2904 17.909 11.2904 17.809C11.2904 17.623 11.2904 17.436 11.2904 17.25C11.2904 17.05 11.2904 16.85 11.2904 16.65C11.2904 16.256 11.2904 15.8617 11.2904 15.467C11.2904 15.1463 11.2904 14.826 11.2904 14.506C11.2904 14.437 11.2904 14.437 11.2904 14.368C11.2904 14.2753 11.2904 14.1827 11.2904 14.09C11.2904 13.2233 11.2904 12.354 11.2904 11.482C11.2904 10.7367 11.2904 9.99134 11.2904 9.246C11.2904 8.37934 11.2904 7.51267 11.2904 6.646C11.2904 6.55334 11.2904 6.461 11.2904 6.369C11.2904 6.301 11.2904 6.301 11.2904 6.231C11.2904 5.911 11.2904 5.591 11.2904 5.271C11.2904 4.881 11.2904 4.491 11.2904 4.101C11.2904 3.901 11.2904 3.701 11.2904 3.501C11.2904 3.285 11.2904 3.069 11.2904 2.854C11.2904 2.791 11.2904 2.729 11.2904 2.664C11.3019 2.47165 11.2743 2.27896 11.2092 2.09761C11.144 1.91626 11.0427 1.75003 10.9114 1.609C10.7236 1.45375 10.5062 1.33824 10.2724 1.26948C10.0387 1.20073 9.79336 1.18015 9.5514 1.209H9.4404H9.1744C9.1744 1.262 9.1744 1.315 9.1744 1.369C9.1956 1.58551 9.17083 1.80405 9.10173 2.01033C9.03263 2.2166 8.92074 2.40596 8.7734 2.566C8.51833 2.72421 8.21976 2.79772 7.9204 2.776H7.7874H7.3464H6.3874C6.11273 2.776 5.83773 2.776 5.5624 2.776H4.9264H4.6264C4.4844 2.776 4.3424 2.776 4.2004 2.776H4.0744C3.78908 2.77511 3.51428 2.66818 3.3034 2.476C3.16982 2.29607 3.07313 2.09149 3.01889 1.87405C2.96466 1.65661 2.95396 1.4306 2.9874 1.209C2.66535 1.14879 2.33393 1.16127 2.01732 1.24553C1.70071 1.32978 1.40692 1.48369 1.1574 1.696ZM3.7874 1.209V1.849C3.83851 1.91742 3.90737 1.97054 3.98652 2.00263C4.06566 2.03471 4.15207 2.04452 4.2364 2.031H5.7734C6.02873 2.031 6.2844 2.031 6.5404 2.031H7.9254C8.00972 2.04452 8.09614 2.03471 8.17528 2.00263C8.25443 1.97054 8.32329 1.91742 8.3744 1.849V1.209H3.7874Z" fill="#777777"/>
<path d="M4.46144 18.285H7.78744C8.10244 18.285 8.10244 18.285 8.23644 18.385C8.30117 18.523 8.3167 18.679 8.28044 18.827C8.23748 18.8773 8.18341 18.917 8.12249 18.9429C8.06158 18.9687 7.99549 18.9801 7.92944 18.976H4.32144C4.18711 18.9852 4.05284 18.9572 3.93344 18.895C3.89407 18.8579 3.86363 18.8123 3.84441 18.7617C3.82518 18.7112 3.81767 18.6569 3.82244 18.603C3.85326 18.5085 3.89809 18.4192 3.95544 18.338C4.11998 18.2923 4.291 18.2744 4.46144 18.285Z" fill="#777777"/>
</svg>
