<svg width="11" height="21" viewBox="0 0 11 21" fill="none" xmlns="http://www.w3.org/2000/svg">
<path d="M0.595356 0.938997H9.66836C9.8091 0.92691 9.94986 0.962099 10.0684 1.039C10.1535 1.18147 10.1887 1.34827 10.1684 1.513V1.623C10.1684 1.744 10.1684 1.864 10.1684 1.985C10.1684 2.07166 10.1684 2.158 10.1684 2.244C10.1684 2.47866 10.1684 2.712 10.1684 2.944C10.1684 3.19 10.1684 3.436 10.1684 3.682C10.1684 4.09533 10.1684 4.50866 10.1684 4.922C10.1684 5.34666 10.1684 5.77133 10.1684 6.196C10.1684 6.708 10.1684 7.22033 10.1684 7.733C10.1684 7.92833 10.1684 8.12366 10.1684 8.319C10.1684 8.54966 10.1684 8.78 10.1684 9.01C10.1684 9.09466 10.1684 9.179 10.1684 9.263C10.2014 9.57296 10.1708 9.88642 10.0783 10.1841C9.98574 10.4818 9.83332 10.7574 9.63036 10.994C9.44691 11.1784 9.22872 11.3246 8.98842 11.4242C8.74812 11.5237 8.49046 11.5746 8.23036 11.574H8.13036L7.69536 11.59H7.38136H7.28136C7.09887 11.5813 6.91666 11.6123 6.74736 11.681C6.59818 12.3971 6.62287 13.1384 6.81936 13.843C6.84069 13.991 6.86136 14.1393 6.88136 14.288C6.94269 14.7273 7.00436 15.1667 7.06636 15.606C7.11502 15.948 7.16302 16.2903 7.21036 16.633C7.23102 16.7797 7.25169 16.9263 7.27236 17.073C7.57236 19.124 7.57236 19.124 7.01936 19.945C6.65457 20.4507 6.11122 20.7989 5.49936 20.919C5.16731 20.9693 4.82861 20.9536 4.50261 20.873C4.1766 20.7923 3.86968 20.6483 3.59936 20.449C3.27092 20.177 3.01238 19.8304 2.84536 19.438L2.80736 19.348C2.65416 18.5663 2.68083 17.7599 2.88536 16.99C2.90669 16.842 2.92736 16.6937 2.94736 16.545C2.99536 16.201 3.04369 15.8573 3.09236 15.514C3.15436 15.076 3.21602 14.638 3.27736 14.2C3.29802 14.0533 3.31869 13.9067 3.33936 13.76C3.52521 13.0827 3.54545 12.3707 3.39836 11.684C3.19967 11.6079 2.9864 11.5775 2.77436 11.595H2.57436H2.25736C1.95555 11.6215 1.6515 11.5873 1.36313 11.4943C1.07476 11.4014 0.807926 11.2517 0.578356 11.054C0.392519 10.8697 0.245665 10.6499 0.146538 10.4076C0.0474112 10.1654 -0.00196276 9.90571 0.00135566 9.644V9.534C0.00135566 9.41333 0.00135566 9.29233 0.00135566 9.171C0.00135566 9.08433 0.00135566 8.99733 0.00135566 8.91C0.00135566 8.674 0.00135566 8.43833 0.00135566 8.203C0.00135566 8.05566 0.00135566 7.90833 0.00135566 7.761C0.00135566 7.353 0.00135566 6.945 0.00135566 6.537V6.454C0.00135566 6.40133 0.00135566 6.34866 0.00135566 6.296C0.00135566 6.27 0.00135566 6.244 0.00135566 6.217C0.00135566 6.19 0.00135566 6.164 0.00135566 6.137C0.00135566 5.711 0.00135566 5.285 0.00135566 4.859C0.00135566 4.42166 0.00135566 3.984 0.00135566 3.546C0.00135566 3.30066 0.00135566 3.055 0.00135566 2.809C0.00135566 2.57833 0.00135566 2.34766 0.00135566 2.117C0.00135566 2.03233 0.00135566 1.94766 0.00135566 1.863C0.00135566 1.747 0.00135566 1.632 0.00135566 1.516V1.416C-0.0075508 1.28371 0.0276142 1.15219 0.101356 1.042C0.25093 0.956135 0.423932 0.920064 0.595356 0.938997ZM0.788356 1.739V8.439H9.36336V1.743H7.80336C7.80336 1.93 7.80336 2.117 7.79636 2.31C7.79636 2.42866 7.79636 2.547 7.79636 2.665C7.79636 2.853 7.79402 3.041 7.78936 3.229C7.78936 3.38033 7.78736 3.532 7.78336 3.684C7.78336 3.742 7.78336 3.8 7.78336 3.858C7.78336 3.93933 7.78336 4.02033 7.78336 4.101C7.78336 4.147 7.78336 4.193 7.78336 4.241C7.78394 4.31991 7.76864 4.39813 7.73836 4.471C7.63798 4.50487 7.53218 4.51979 7.42636 4.515H7.32636C7.25413 4.51442 7.18274 4.49946 7.11636 4.471C7.07974 4.35124 7.06385 4.22611 7.06936 4.101V4.024C7.06936 3.94 7.06936 3.856 7.06936 3.772V3.597C7.06936 3.44366 7.06736 3.29 7.06336 3.136C7.06336 2.952 7.06102 2.76766 7.05636 2.583C7.05236 2.303 7.04869 2.023 7.04536 1.743H5.48636C5.48636 1.93 5.48636 2.117 5.47936 2.31C5.47936 2.42866 5.47936 2.547 5.47936 2.665C5.47936 2.853 5.47702 3.041 5.47236 3.229C5.47236 3.38033 5.47036 3.532 5.46636 3.684C5.46636 3.742 5.46636 3.8 5.46636 3.858C5.46636 3.93933 5.46636 4.02033 5.46636 4.101C5.46636 4.147 5.46636 4.193 5.46636 4.241C5.46694 4.31991 5.45164 4.39813 5.42136 4.471C5.32098 4.50487 5.21518 4.51979 5.10936 4.515H5.00936C4.93713 4.51442 4.86574 4.49946 4.79936 4.471C4.76274 4.35124 4.74685 4.22611 4.75236 4.101V4.024C4.75236 3.94 4.75236 3.856 4.75236 3.772V3.597C4.75236 3.44366 4.75036 3.29 4.74636 3.136C4.74636 2.952 4.74402 2.76766 4.73936 2.583C4.73536 2.303 4.73169 2.023 4.72836 1.743H3.12536L3.11836 2.481C3.11836 2.635 3.11836 2.789 3.11836 2.943C3.11836 3.18766 3.11602 3.43233 3.11136 3.677C3.11136 3.877 3.10936 4.074 3.10536 4.268C3.10536 4.34333 3.10536 4.41866 3.10536 4.494C3.10536 4.59933 3.10536 4.70466 3.10536 4.81V4.905C3.10932 5.02241 3.09378 5.13967 3.05936 5.252C2.95898 5.28587 2.85318 5.30079 2.74736 5.296H2.64736C2.57547 5.29528 2.50443 5.28033 2.43836 5.252C2.39868 5.10855 2.38281 4.95958 2.39136 4.811V4.711C2.39136 4.60166 2.39136 4.49233 2.39136 4.383C2.39136 4.307 2.39136 4.231 2.39136 4.155C2.39136 3.955 2.38936 3.755 2.38536 3.555C2.38536 3.31566 2.38302 3.076 2.37836 2.836C2.37436 2.472 2.37069 2.108 2.36736 1.744L0.788356 1.739ZM0.788356 9.223C0.738719 9.63875 0.848411 10.0579 1.09536 10.396C1.25619 10.5412 1.44523 10.6516 1.65067 10.7204C1.85611 10.7893 2.07353 10.815 2.28936 10.796H2.48436H2.78436C3.19297 10.7476 3.60436 10.8602 3.93136 11.11C4.0713 11.281 4.17516 11.4786 4.23669 11.6909C4.29822 11.9031 4.31613 12.1256 4.28936 12.345H5.84836L5.88736 11.645C6.00876 11.3029 6.26033 11.0226 6.58736 10.865C6.73011 10.8252 6.87834 10.8087 7.02636 10.816H7.22636L7.53436 10.811C8.03671 10.87 8.54396 10.7526 8.96936 10.479C9.11909 10.3107 9.23131 10.1125 9.29855 9.89746C9.36579 9.68247 9.38652 9.45562 9.35936 9.232L0.788356 9.223ZM4.25736 13.123L4.05236 14.602L3.95236 15.289C3.87569 15.843 3.79902 16.3967 3.72236 16.95L3.68036 17.256C3.65769 17.42 3.63536 17.584 3.61336 17.748L3.59436 17.884C3.5226 18.1562 3.5066 18.4401 3.54733 18.7187C3.58805 18.9973 3.68466 19.2647 3.83136 19.505C3.9602 19.6747 4.12238 19.8162 4.30793 19.921C4.49349 20.0257 4.69849 20.0914 4.91036 20.114C5.32033 20.1539 5.72971 20.0323 6.05136 19.775C6.20428 19.6517 6.33139 19.4995 6.42543 19.3271C6.51946 19.1546 6.57856 18.9653 6.59936 18.77C6.59517 18.2406 6.54937 17.7123 6.46236 17.19C6.44369 17.0567 6.42536 16.9233 6.40736 16.79C6.37269 16.5367 6.33769 16.2837 6.30236 16.031C6.26236 15.7437 6.22269 15.456 6.18336 15.168C6.12469 14.716 6.06202 14.267 5.99536 13.821L5.97736 13.689L5.96036 13.567L5.94536 13.461C5.92836 13.348 5.91036 13.236 5.89136 13.124L4.25736 13.123Z" fill="#777777"/>
<path d="M5.49337 17.766C5.68005 17.8781 5.81728 18.0567 5.87737 18.266C5.90568 18.4033 5.90602 18.5449 5.87836 18.6824C5.85069 18.8199 5.7956 18.9503 5.71637 19.066C5.61511 19.16 5.49485 19.2311 5.36374 19.2745C5.23263 19.318 5.09371 19.3328 4.95637 19.318C4.85976 19.3145 4.76488 19.2913 4.67753 19.2499C4.59019 19.2084 4.51221 19.1496 4.44837 19.077C4.3658 18.9607 4.30749 18.8289 4.27691 18.6896C4.24633 18.5503 4.24411 18.4062 4.27037 18.266C4.29706 18.1641 4.34391 18.0686 4.40815 17.9851C4.47239 17.9017 4.55271 17.8319 4.64437 17.78C4.77659 17.7169 4.92085 17.683 5.06735 17.6806C5.21384 17.6781 5.35914 17.7073 5.49337 17.766Z" fill="#777777"/>
<path d="M2.94335 6.102C3.03258 6.14145 3.10389 6.21276 3.14335 6.302C3.16775 6.39027 3.17369 6.48264 3.16079 6.57331C3.14788 6.66399 3.11641 6.75103 3.06835 6.829C2.99038 6.87706 2.90334 6.90853 2.81266 6.92144C2.72199 6.93434 2.62962 6.9284 2.54134 6.904C2.45211 6.86454 2.3808 6.79323 2.34135 6.704C2.31694 6.61572 2.311 6.52335 2.3239 6.43268C2.33681 6.342 2.36828 6.25496 2.41634 6.177C2.49431 6.12893 2.58135 6.09746 2.67203 6.08456C2.7627 6.07165 2.85507 6.07759 2.94335 6.102Z" fill="#777777"/>
</svg>
