<svg width="14" height="15" viewBox="0 0 14 15" fill="none" xmlns="http://www.w3.org/2000/svg">
<path fill-rule="evenodd" clip-rule="evenodd" d="M10.107 10.101C10.9883 8.9654 11.4036 7.53666 11.2686 6.10561C11.1335 4.67455 10.4582 3.34874 9.38009 2.39805C8.30196 1.44736 6.90208 0.943248 5.46537 0.988324C4.02866 1.0334 2.66313 1.62428 1.64672 2.64068C0.630314 3.65709 0.0394357 5.02262 -0.00564087 6.45933C-0.0507174 7.89604 0.453396 9.29593 1.40409 10.3741C2.35478 11.4522 3.68058 12.1275 5.11164 12.2625C6.5427 12.3976 7.97144 11.9822 9.10703 11.101L9.13803 11.133L12.132 14.128C12.2646 14.2606 12.4445 14.3351 12.632 14.3351C12.8196 14.3351 12.9994 14.2606 13.132 14.128C13.2646 13.9954 13.3391 13.8155 13.3391 13.628C13.3391 13.4405 13.2646 13.2606 13.132 13.128L10.137 10.134L10.107 10.101ZM8.64303 3.647C9.23514 4.23915 9.63836 4.99357 9.8017 5.81488C9.96505 6.63619 9.88118 7.48749 9.56071 8.26113C9.24024 9.03478 8.69756 9.69602 8.00129 10.1612C7.30502 10.6265 6.48643 10.8748 5.64903 10.8748C4.81164 10.8748 3.99305 10.6265 3.29678 10.1612C2.60051 9.69602 2.05783 9.03478 1.73736 8.26113C1.41689 7.48749 1.33302 6.63619 1.49637 5.81488C1.65971 4.99357 2.06293 4.23915 2.65503 3.647C3.0482 3.2538 3.51497 2.9419 4.02868 2.7291C4.54239 2.51631 5.09299 2.40678 5.64903 2.40678C6.20508 2.40678 6.75568 2.51631 7.26939 2.7291C7.7831 2.9419 8.24987 3.2538 8.64303 3.647Z" fill="#B1B1B1"/>
</svg>
