<svg width="15" height="14" viewBox="0 0 15 14" fill="none" xmlns="http://www.w3.org/2000/svg">
<path d="M7.676 0.333C8.58833 0.33026 9.49155 0.514375 10.33 0.874C11.1458 1.21139 11.8871 1.70638 12.5114 2.33064C13.1356 2.95491 13.6306 3.69617 13.968 4.512C14.3252 5.35121 14.5094 6.25391 14.5094 7.166C14.5094 8.07809 14.3252 8.98079 13.968 9.82C13.6306 10.6358 13.1356 11.3771 12.5114 12.0014C11.8871 12.6256 11.1458 13.1206 10.33 13.458C9.49079 13.8152 8.58809 13.9994 7.676 13.9994C6.76392 13.9994 5.86122 13.8152 5.022 13.458C4.20618 13.1206 3.46491 12.6256 2.84065 12.0014C2.21639 11.3771 1.72139 10.6358 1.384 9.82C1.02676 8.98079 0.842621 8.07809 0.842621 7.166C0.842621 6.25391 1.02676 5.35121 1.384 4.512C1.72139 3.69617 2.21639 2.95491 2.84065 2.33064C3.46491 1.70638 4.20618 1.21139 5.022 0.874C5.86046 0.514375 6.76368 0.33026 7.676 0.333ZM7.676 1.309C6.71584 1.30744 5.77016 1.54308 4.923 1.995L6.403 3.475C7.22808 3.18996 8.12493 3.18996 8.95 3.475L10.429 1.995C9.58184 1.54308 8.63616 1.30744 7.676 1.309ZM2.505 9.919L3.985 8.44C3.69996 7.61493 3.69996 6.71807 3.985 5.893L2.505 4.413C2.05438 5.26067 1.81873 6.206 1.81873 7.166C1.81873 8.126 2.05438 9.07133 2.505 9.919ZM7.676 13.019C8.63616 13.0206 9.58184 12.7849 10.429 12.333L8.95 10.857C8.12493 11.142 7.22808 11.142 6.403 10.857L4.923 12.333C5.7698 12.7863 6.7155 13.0233 7.676 13.023V13.019ZM7.676 10.091C8.45213 10.091 9.19653 9.78296 9.74571 9.23453C10.2949 8.6861 10.6039 7.94213 10.605 7.166C10.6055 6.78102 10.5302 6.39972 10.3832 6.04389C10.2362 5.68807 10.0206 5.3647 9.74853 5.0923C9.4765 4.81989 9.15343 4.60378 8.79781 4.45634C8.44218 4.30889 8.06098 4.233 7.676 4.233C7.29069 4.23247 6.90906 4.30798 6.55297 4.45519C6.19688 4.6024 5.87334 4.81842 5.60088 5.09088C5.32843 5.36334 5.1124 5.68688 4.96519 6.04297C4.81798 6.39905 4.74248 6.78068 4.743 7.166C4.743 7.55098 4.8189 7.93218 4.96634 8.2878C5.11379 8.64343 5.32989 8.9665 5.6023 9.23853C5.87471 9.51057 6.19807 9.72623 6.55389 9.87319C6.90972 10.0202 7.29102 10.0955 7.676 10.095V10.091ZM11.367 8.436L12.843 9.919C13.2936 9.07133 13.5293 8.126 13.5293 7.166C13.5293 6.206 13.2936 5.26067 12.843 4.413L11.367 5.893C11.652 6.71807 11.652 7.61493 11.367 8.44V8.436Z" fill="#777777"/>
</svg>
