<svg width="18" height="13" viewBox="0 0 18 13" fill="none" xmlns="http://www.w3.org/2000/svg">
<path d="M10.5941 0.530989L10.6801 0.600989L10.7561 0.659989C11.2373 1.07535 11.5476 1.65427 11.6271 2.28499C11.7174 2.98745 11.5293 3.69737 11.1031 4.26299C10.9515 4.45777 10.7734 4.63044 10.574 4.77599L10.6311 4.80499C11.0394 5.00405 11.421 5.25368 11.7671 5.54799L11.8221 5.59699C12.3655 6.09778 12.7633 6.73637 12.9731 7.44499L12.998 7.52599C13.1149 7.99491 13.1644 8.4781 13.145 8.96099C13.145 9.02099 13.145 9.08132 13.145 9.14199C13.145 9.26732 13.145 9.39266 13.145 9.51799C13.145 9.67732 13.145 9.83699 13.145 9.99699C13.145 10.121 13.145 10.2453 13.145 10.37C13.145 10.4287 13.145 10.4873 13.145 10.546C13.1711 10.8536 13.1335 11.1634 13.0345 11.4559C12.9356 11.7483 12.7775 12.0173 12.5701 12.246C12.2107 12.5874 11.7337 12.7775 11.2381 12.777H9.44404H8.56805H6.89905C6.62188 12.7891 6.34508 12.7458 6.08491 12.6494C5.82475 12.5531 5.58646 12.4057 5.38405 12.216C5.02799 11.8378 4.83384 11.3354 4.84305 10.816C4.84305 10.79 4.84305 10.764 4.84305 10.737C4.84305 10.6517 4.84305 10.566 4.84305 10.48V10.39C4.84305 10.2333 4.84305 10.0763 4.84305 9.91899C4.84305 9.76166 4.84305 9.60166 4.84305 9.43899C4.84305 9.31432 4.84305 9.18966 4.84305 9.06499C4.84305 9.00632 4.84305 8.94732 4.84305 8.88799C4.8213 8.29536 4.91958 7.70445 5.13199 7.15076C5.34439 6.59707 5.66654 6.09203 6.07905 5.66599C6.47939 5.30312 6.93004 4.99999 7.41705 4.76599L7.36204 4.71999C6.82453 4.29776 6.46717 3.68738 6.36204 3.01199C6.31731 2.62628 6.35238 2.2355 6.46506 1.86391C6.57773 1.49233 6.76563 1.14789 7.01706 0.851989C7.46914 0.367423 8.08412 0.0667132 8.74417 0.00747997C9.40422 -0.0517532 10.0629 0.134656 10.5941 0.530989ZM7.66205 1.33799C7.47615 1.54038 7.3336 1.77865 7.24315 2.03814C7.15269 2.29764 7.11624 2.57289 7.13605 2.84699C7.21437 3.36578 7.48939 3.83452 7.90405 4.15599C8.30357 4.436 8.79304 4.55721 9.27705 4.49599C9.78257 4.39895 10.2321 4.11286 10.5341 3.69599C10.6771 3.48404 10.7761 3.24546 10.8251 2.99446C10.874 2.74346 10.872 2.48518 10.819 2.23499C10.7573 1.98152 10.6448 1.74319 10.4884 1.53437C10.332 1.32555 10.1349 1.15058 9.90906 1.01999C9.5498 0.825803 9.13777 0.751809 8.7334 0.808857C8.32902 0.865905 7.95356 1.05099 7.66205 1.33699V1.33799ZM6.75004 6.14499L6.65706 6.23099C6.32381 6.56178 6.06053 6.95624 5.88289 7.39089C5.70525 7.82553 5.61688 8.29148 5.62304 8.76099C5.61704 9.04899 5.61706 9.33699 5.61806 9.62499C5.61806 9.75232 5.61806 9.87965 5.61806 10.007C5.61806 10.1063 5.61806 10.2063 5.61806 10.307C5.61806 10.3737 5.61806 10.443 5.61806 10.515C5.57937 10.9065 5.68225 11.2989 5.90805 11.621C6.08006 11.7742 6.28312 11.8884 6.50334 11.9559C6.72356 12.0234 6.95575 12.0425 7.18405 12.012H10.9111C11.2899 12.0459 11.6685 11.943 11.9781 11.722C12.1352 11.5407 12.2516 11.3278 12.3192 11.0976C12.3868 10.8675 12.4042 10.6255 12.3701 10.388C12.3701 10.3393 12.3701 10.291 12.3701 10.243C12.3701 10.1417 12.3701 10.0417 12.3701 9.94299C12.3701 9.84432 12.3701 9.74166 12.3701 9.63499C12.4458 9.06297 12.4067 8.48157 12.2549 7.92487C12.1031 7.36817 11.8417 6.84737 11.4861 6.39299L11.4001 6.29999C10.7713 5.66496 9.92232 5.29616 9.02905 5.26999C8.18606 5.26295 7.37172 5.5756 6.75004 6.14499Z" fill="#777777"/>
<path d="M15.908 1.51299C16.3944 1.871 16.7316 2.39584 16.855 2.98699C16.8679 3.11991 16.873 3.25348 16.87 3.38699V3.49399C16.8565 3.81447 16.7765 4.12864 16.635 4.4165C16.4935 4.70436 16.2936 4.9596 16.048 5.16599L16.148 5.21999C16.5742 5.44782 16.95 5.75943 17.2528 6.13611C17.5556 6.51278 17.7791 6.94677 17.91 7.41199C17.9757 7.7015 18.0032 7.99834 17.992 8.29499C17.992 8.34633 17.992 8.39733 17.992 8.44799C17.992 8.55466 17.992 8.66133 17.992 8.76799C17.992 8.90299 17.992 9.03899 17.992 9.17399C17.992 9.27933 17.992 9.38466 17.992 9.48999C17.992 9.53999 17.992 9.58999 17.992 9.63999C18.0052 9.91483 17.9625 10.1895 17.8664 10.4473C17.7703 10.7052 17.6229 10.9408 17.433 11.14C17.2919 11.2725 17.1314 11.3828 16.957 11.467L16.889 11.502C16.5503 11.6366 16.1854 11.6924 15.822 11.665H14.222C14.0917 11.6465 13.9713 11.5849 13.88 11.49C13.8216 11.3651 13.8068 11.2243 13.838 11.09C13.8837 10.9987 13.9578 10.9247 14.049 10.879C14.113 10.879 14.177 10.874 14.241 10.873H14.496H14.702L15.211 10.867H15.496H15.764C16.1661 10.9052 16.5671 10.7842 16.881 10.53C16.9781 10.4316 17.0546 10.3149 17.1061 10.1866C17.1576 10.0584 17.183 9.92118 17.181 9.78299V9.40499C17.181 9.31233 17.181 9.21966 17.181 9.12699C17.181 9.03433 17.181 8.94033 17.181 8.84499C17.244 8.24303 17.1478 7.63508 16.902 7.08199L16.865 7.01199C16.542 6.4319 16.0109 5.99592 15.379 5.79199C15.287 5.76599 15.195 5.74299 15.101 5.72399L14.985 5.69999C14.5194 5.64309 14.0469 5.70822 13.614 5.88899C13.4581 5.97614 13.2762 6.00486 13.101 5.96999C13.0158 5.93246 12.9427 5.87184 12.89 5.79499C12.8403 5.66801 12.8403 5.52697 12.89 5.39999C12.9647 5.30169 13.0599 5.22082 13.169 5.16299L13.094 5.09599C12.8654 4.89554 12.6808 4.64986 12.5519 4.37448C12.4229 4.09909 12.3525 3.79997 12.345 3.49599C12.3277 3.18535 12.3752 2.8745 12.4846 2.58321C12.5939 2.29192 12.7626 2.02656 12.98 1.80399C13.3582 1.42272 13.8573 1.1851 14.3917 1.13199C14.9261 1.07889 15.4622 1.21361 15.908 1.51299ZM13.402 2.52199C13.1775 2.85394 13.0829 3.25681 13.136 3.65399C13.1858 3.91537 13.3073 4.15774 13.487 4.35399L13.568 4.44599C13.8695 4.73811 14.2743 4.89916 14.694 4.89399C15.1295 4.83463 15.5263 4.61279 15.805 4.27299C16.0342 3.95045 16.1338 3.55354 16.084 3.16099C16.0112 2.75925 15.7863 2.40107 15.456 2.16099C15.3871 2.11531 15.3157 2.07357 15.242 2.03599L15.176 2.00199C14.8637 1.88615 14.5224 1.87418 14.2028 1.96787C13.8832 2.06156 13.6023 2.2559 13.402 2.52199Z" fill="#777777"/>
<path d="M4.67909 1.51299C5.16544 1.871 5.50262 2.39583 5.62608 2.98699C5.63902 3.1199 5.64402 3.25347 5.64108 3.38699V3.49399C5.62761 3.81447 5.54757 4.12863 5.40605 4.41649C5.26453 4.70435 5.06464 4.9596 4.81909 5.16599L4.87009 5.19799C4.96802 5.25339 5.05239 5.32991 5.11708 5.42199C5.14498 5.54632 5.13878 5.67589 5.09909 5.79699C5.03417 5.89486 4.93378 5.9637 4.81909 5.98899C4.62549 5.98943 4.43516 5.93908 4.26709 5.84299C3.64582 5.61228 2.95948 5.63019 2.35109 5.89299C2.14153 5.98812 1.94467 6.10906 1.76509 6.25299L1.68408 6.31499C1.20482 6.73013 0.896007 7.30785 0.817077 7.93699C0.795076 8.23699 0.797086 8.53199 0.799086 8.82999C0.799086 8.96899 0.799086 9.10699 0.799086 9.24599C0.799086 9.33532 0.799086 9.42432 0.799086 9.51299C0.799086 9.55399 0.799086 9.59499 0.799086 9.63699C0.791737 9.80368 0.818354 9.97013 0.877318 10.1262C0.936282 10.2823 1.02636 10.4248 1.14209 10.545C1.31084 10.675 1.50411 10.7696 1.71033 10.823C1.91654 10.8764 2.13143 10.8877 2.34209 10.856H2.54909H3.05708H3.34308H3.61209H3.73509H3.84308C3.94933 10.8762 4.04559 10.9319 4.11609 11.014C4.16843 11.1357 4.18069 11.2709 4.15109 11.4C4.12422 11.4585 4.08529 11.5106 4.03686 11.553C3.98844 11.5954 3.9316 11.6271 3.87009 11.646C3.80109 11.646 3.73108 11.651 3.66208 11.652H2.94108H2.55308H2.04109C1.76612 11.664 1.49156 11.6204 1.23382 11.5238C0.976094 11.4272 0.740494 11.2797 0.541091 11.09C0.211055 10.7817 0.0165382 10.3553 9.04407e-05 9.90399V9.76499C9.04407e-05 9.71499 9.04407e-05 9.66465 9.04407e-05 9.61399C9.04407e-05 9.58799 9.04407e-05 9.56299 9.04407e-05 9.53699C9.04407e-05 9.40365 9.04407e-05 9.26832 9.04407e-05 9.13099C9.04407e-05 8.99365 9.04407e-05 8.85532 9.04407e-05 8.71599C9.04407e-05 8.60865 9.04407e-05 8.50099 9.04407e-05 8.39299C9.04407e-05 8.34232 9.04407e-05 8.29132 9.04407e-05 8.23999C-0.00646674 7.34039 0.34377 6.47487 0.974089 5.83299C1.2663 5.56231 1.59316 5.33163 1.94609 5.14699L1.87108 5.07999C1.64244 4.87953 1.45785 4.63386 1.32893 4.35847C1.20002 4.08308 1.12958 3.78396 1.12208 3.47999C1.10479 3.16934 1.15232 2.85849 1.26164 2.5672C1.37096 2.27591 1.53967 2.01055 1.75708 1.78799C2.13682 1.41067 2.63582 1.17696 3.16879 1.1268C3.70176 1.07664 4.23562 1.21315 4.67909 1.51299ZM2.17209 2.52199C1.94761 2.85394 1.85294 3.2568 1.90608 3.65399C1.95587 3.91536 2.0774 4.15774 2.25708 4.35399L2.33809 4.44599C2.63956 4.73811 3.04432 4.89915 3.46408 4.89399C3.89952 4.83462 4.2964 4.61279 4.57509 4.27299C4.80476 3.95099 4.90504 3.55445 4.85608 3.16199C4.78326 2.76024 4.55833 2.40206 4.22809 2.16199C4.15918 2.1163 4.08773 2.07456 4.01408 2.03699L3.94809 2.00299C3.63566 1.88656 3.29397 1.87418 2.97394 1.9677C2.6539 2.06123 2.37266 2.25564 2.17209 2.52199Z" fill="#777777"/>
</svg>
