<svg width="12" height="13" viewBox="0 0 12 13" fill="none" xmlns="http://www.w3.org/2000/svg">
<path d="M6 0.326C5.3408 0.326 4.69639 0.521477 4.14828 0.887712C3.60017 1.25395 3.17298 1.77449 2.92071 2.38352C2.66844 2.99254 2.60244 3.6627 2.73104 4.30924C2.85965 4.95577 3.17708 5.54966 3.64321 6.01579C4.10934 6.48192 4.70323 6.79935 5.34976 6.92796C5.9963 7.05656 6.66646 6.99056 7.27548 6.73829C7.88451 6.48602 8.40505 6.05882 8.77129 5.51072C9.13752 4.96261 9.333 4.31821 9.333 3.659C9.33221 2.77528 8.9808 1.92798 8.35591 1.30309C7.73102 0.678204 6.88372 0.326795 6 0.326ZM6 5.658C5.60444 5.658 5.21776 5.5407 4.88886 5.32094C4.55996 5.10118 4.30362 4.78882 4.15224 4.42337C4.00087 4.05791 3.96126 3.65578 4.03843 3.26782C4.1156 2.87986 4.30608 2.52349 4.58579 2.24379C4.86549 1.96408 5.22186 1.7736 5.60982 1.69643C5.99778 1.61926 6.39991 1.65887 6.76537 1.81024C7.13082 1.96162 7.44318 2.21796 7.66294 2.54686C7.8827 2.87576 8 3.26244 8 3.658C8 4.18843 7.78929 4.69714 7.41421 5.07221C7.03914 5.44729 6.53043 5.658 6 5.658ZM12 12.99V12.326C11.9984 11.089 11.5063 9.90309 10.6316 9.02839C9.75691 8.15369 8.57101 7.66159 7.334 7.66H4.666C3.42891 7.66132 2.24286 8.15334 1.3681 9.0281C0.493344 9.90286 0.00132352 11.0889 0 12.326V12.993H1.333V12.326C1.33379 11.4423 1.6852 10.595 2.31009 9.97009C2.93498 9.3452 3.78228 8.99379 4.666 8.993H7.332C8.21572 8.99379 9.06302 9.3452 9.68791 9.97009C10.3128 10.595 10.6642 11.4423 10.665 12.326V12.993L12 12.99Z" fill="#777777"/>
</svg>
