<svg width="12" height="18" viewBox="0 0 12 18" fill="none" xmlns="http://www.w3.org/2000/svg">
<path d="M4.60905 0.506989H5.74306H6.35406H7.05406C7.38167 0.472418 7.71288 0.506494 8.02658 0.607045C8.34028 0.707595 8.6296 0.872413 8.87606 1.09099C9.2002 1.47397 9.41996 1.93416 9.51406 2.42699C9.53939 2.51832 9.56506 2.60966 9.59106 2.70099C9.6644 2.96032 9.73673 3.21999 9.80806 3.47999C9.85206 3.63999 9.89673 3.79966 9.94206 3.95899C9.95873 4.01966 9.97539 4.07999 9.99206 4.13999C10.0368 4.44546 10.1792 4.72823 10.3981 4.94599L10.4751 5.02699L10.5421 5.09799C11.1883 5.8503 11.6387 6.75066 11.8531 7.71899L11.8711 7.79199C12.0556 8.66206 12.0378 9.56288 11.8191 10.425L11.7981 10.512C11.5405 11.503 11.027 12.4089 10.3091 13.139C10.1807 13.3029 10.0917 13.4942 10.0491 13.698L10.0271 13.775L9.98106 13.941L9.90706 14.205C9.83639 14.455 9.76639 14.705 9.69706 14.955C9.65439 15.1083 9.61139 15.2617 9.56806 15.415L9.52006 15.589C9.46043 15.9278 9.33209 16.2509 9.14291 16.5383C8.95374 16.8256 8.70773 17.0713 8.42006 17.26C8.2541 17.3499 8.07687 17.4171 7.89307 17.46L7.82306 17.478C7.68084 17.4963 7.53739 17.5033 7.39406 17.499H6.25906H5.64806H4.94806C4.61944 17.5338 4.28717 17.4996 3.97255 17.3985C3.65793 17.2974 3.3679 17.1317 3.12106 16.912C2.79693 16.529 2.57717 16.0688 2.48306 15.576C2.45773 15.4847 2.43207 15.3933 2.40607 15.302C2.33273 15.0427 2.26039 14.783 2.18906 14.523C2.14506 14.363 2.1004 14.2033 2.05507 14.044C2.0384 13.9833 2.02173 13.923 2.00507 13.863C1.96028 13.5575 1.81785 13.2748 1.59906 13.057L1.52206 12.976L1.45506 12.905C0.811981 12.1541 0.363769 11.2563 0.150055 10.291L0.132065 10.218C-0.0500606 9.39391 -0.0439177 8.53936 0.150055 7.71799L0.173065 7.62399C0.413972 6.62722 0.905504 5.70851 1.60106 4.95499L1.67206 4.87699L1.75606 4.78599C1.83992 4.67881 1.89839 4.55402 1.92706 4.42099L1.94806 4.34699C1.97106 4.26699 1.99307 4.18599 2.01607 4.10599L2.06406 3.93699C2.10672 3.78899 2.14873 3.64066 2.19006 3.49199C2.24073 3.31266 2.29139 3.13366 2.34206 2.95499C2.38206 2.81566 2.42173 2.67599 2.46106 2.53599C2.51435 2.17633 2.64157 1.8316 2.83467 1.52353C3.02778 1.21545 3.28259 0.950715 3.58307 0.745989C3.89769 0.576385 4.25187 0.493876 4.60905 0.506989ZM3.87006 1.93299C3.7113 2.2166 3.59569 2.52229 3.52705 2.83999C3.50205 2.92899 3.47606 3.01799 3.45006 3.10699L3.40106 3.27699L3.37706 3.35699C3.33607 3.45191 3.33074 3.55845 3.36206 3.65699L3.47806 3.60499C3.87692 3.42781 4.29092 3.28691 4.71506 3.18399L4.78806 3.16599C5.61207 2.98328 6.46676 2.98943 7.28806 3.18399L7.38806 3.20799C7.83008 3.32167 8.26189 3.47186 8.67906 3.65699C8.62526 3.37421 8.5565 3.09448 8.47306 2.81899L8.42906 2.66499C8.37494 2.2977 8.18555 1.96388 7.89806 1.72899C7.71599 1.64302 7.51493 1.60514 7.31406 1.61899H6.24406H5.66707H4.62405C4.48349 1.61631 4.3439 1.64284 4.21411 1.69688C4.08433 1.75093 3.96717 1.83133 3.87006 1.93299ZM2.54306 5.58099C1.63196 6.51269 1.12465 7.76586 1.13106 9.06899C1.1428 10.1714 1.5373 11.2354 2.24706 12.079L2.32207 12.165C2.39707 12.25 2.47406 12.334 2.55106 12.417L2.61507 12.487C3.50109 13.3592 4.68984 13.8554 5.93306 13.872C7.23583 13.8747 8.48734 13.3646 9.41706 12.452L9.48706 12.388C10.2884 11.6013 10.7713 10.5466 10.8431 9.42599C10.8431 9.29199 10.8431 9.15699 10.8431 9.02599C10.8431 9.00199 10.8431 8.97699 10.8431 8.95199C10.8523 8.59407 10.8153 8.23646 10.7331 7.88799L10.7181 7.82199C10.57 7.19225 10.2879 6.60184 9.89106 6.09099L9.81906 5.99599C9.04863 5.00458 7.92095 4.35389 6.67706 4.18299C5.92703 4.08576 5.16468 4.16116 4.44823 4.40345C3.73177 4.64573 3.08014 5.04849 2.54306 5.58099ZM3.32906 14.345C3.38288 14.6278 3.45165 14.9075 3.53506 15.183L3.57906 15.337C3.63011 15.669 3.7877 15.9754 4.02806 16.21L4.11307 16.255L4.19907 16.303C4.35155 16.3671 4.51722 16.3935 4.68207 16.38H5.75507H6.33406H7.38106C7.61791 16.3748 7.84739 16.2966 8.03806 16.156C8.26193 15.8627 8.41152 15.5196 8.47406 15.156C8.49906 15.067 8.52506 14.978 8.55106 14.889L8.60006 14.719L8.62406 14.639C8.66496 14.544 8.67029 14.4375 8.63906 14.339L8.51906 14.392C8.16449 14.5528 7.7964 14.682 7.41907 14.778L7.33907 14.798C6.47652 15.005 5.57777 15.0098 4.71306 14.812L4.61307 14.788C4.17361 14.6759 3.74415 14.5277 3.32906 14.345Z" fill="#777777"/>
<path d="M6.204 6.29598C6.28019 6.32666 6.3494 6.37241 6.40748 6.43049C6.46556 6.48857 6.51131 6.55779 6.54199 6.63398C6.55251 6.7888 6.55251 6.94416 6.54199 7.09898C6.54199 7.16898 6.54199 7.23798 6.54199 7.30798C6.54199 7.47898 6.53499 7.64898 6.52799 7.81998C6.44958 8.21051 6.51643 8.61624 6.71599 8.96098C6.84305 9.08959 6.97979 9.20827 7.12499 9.31598C7.23703 9.42426 7.30203 9.57222 7.30599 9.72798C7.30031 9.82048 7.27466 9.91066 7.23081 9.9923C7.18697 10.074 7.12596 10.1451 7.052 10.201C6.91957 10.2774 6.76559 10.308 6.614 10.288C6.36801 10.1775 6.15099 10.0115 5.97999 9.80298L5.81299 9.63498L5.70599 9.52698L5.656 9.47698C5.58429 9.41222 5.52883 9.3315 5.49408 9.24134C5.45934 9.15118 5.44629 9.05411 5.45599 8.95798V8.88098C5.45599 8.79898 5.45599 8.71798 5.45599 8.63598C5.45599 8.57931 5.45599 8.52231 5.45599 8.46498C5.45599 8.34565 5.45599 8.22631 5.45599 8.10698C5.45599 7.95431 5.45599 7.80165 5.45599 7.64898C5.45599 7.53165 5.45599 7.41398 5.45599 7.29598C5.45599 7.23998 5.45599 7.18365 5.45599 7.12698C5.45599 7.04798 5.45599 6.96898 5.45599 6.88998V6.82098C5.45493 6.67614 5.50972 6.53646 5.60899 6.43098C5.69011 6.36248 5.7865 6.31446 5.89004 6.29097C5.99359 6.26748 6.10126 6.26919 6.204 6.29598Z" fill="#777777"/>
</svg>
